<svg width="28" height="30" viewBox="0 0 28 30" fill="none" xmlns="http://www.w3.org/2000/svg">
<path d="M1.79846 26.7306H4.79146V28.5756C4.79146 29.1086 5.22606 29.5432 5.75906 29.5432H8.40766C8.94066 29.5432 9.37526 29.1086 9.37526 28.5756V26.7306H18.6249V28.5756C18.6249 29.1086 19.0595 29.5432 19.5925 29.5432H22.2411C22.7741 29.5432 23.2087 29.1086 23.2087 28.5756V26.7306H26.2017V24.9512H1.79846V26.7306Z" fill="white"/>
<path d="M2.97101 6.49296C2.97101 5.95996 3.40561 5.52536 3.93861 5.52536H24.0532C24.5862 5.52536 25.0208 5.95996 25.0208 6.49296V8.33796H26.2754V0.834961H1.72461V8.33796H2.97921V6.49296H2.97101Z" fill="white"/>
<path d="M25.7178 9.09246V12.2085H24.3484V7.45246C24.3484 6.91946 23.9138 6.48486 23.3808 6.48486H4.62745C4.09445 6.48486 3.65985 6.91946 3.65985 7.45246V12.2085H2.29045V9.09246H0.158447V12.2085V14.2257H2.29045H3.65985V15.6361H2.76605C2.23305 15.6361 1.79845 16.0707 1.79845 16.6037V24.4265H26.2098V16.6037C26.2098 16.0707 25.7752 15.6361 25.2422 15.6361H24.3566V14.2257H25.726H27.858V12.2085V9.09246H25.7178V9.09246ZM5.46385 8.92026C5.46385 8.38726 5.89845 7.95266 6.43145 7.95266H21.5604C22.0934 7.95266 22.528 8.38726 22.528 8.92026V15.6443H5.46385V8.92026ZM6.99725 22.8849H5.34905C4.88985 22.8849 4.52085 22.5159 4.52085 22.0567C4.52085 21.5975 4.88985 21.2285 5.34905 21.2285H6.99725C7.45645 21.2285 7.82545 21.5975 7.82545 22.0567C7.82545 22.5159 7.45645 22.8849 6.99725 22.8849ZM19.043 22.8849H8.95705V21.9173H19.043V22.8849ZM19.043 20.8677H8.95705V19.9001H19.043V20.8677ZM19.043 18.8423H8.95705V17.8747H19.043V18.8423ZM22.651 22.8849H21.0028C20.5436 22.8849 20.1746 22.5159 20.1746 22.0567C20.1746 21.5975 20.5436 21.2285 21.0028 21.2285H22.651C23.1102 21.2285 23.4792 21.5975 23.4792 22.0567C23.471 22.5159 23.102 22.8849 22.651 22.8849Z" fill="white"/>
</svg>
