<svg width="88" height="88" viewBox="0 0 88 88" fill="none" xmlns="http://www.w3.org/2000/svg">
<circle cx="43.9999" cy="44" r="44" fill="#ECEBFD"/>
<path d="M26.7042 60.4H20.9564C20.4322 60.4 19.9999 59.9769 19.9999 59.4435V42.2001C19.9999 41.9334 20.1103 41.6851 20.3034 41.5012C20.4965 41.3172 20.7541 41.2437 21.0208 41.2437C22.998 41.3632 29.5643 41.8598 31.2013 43.4232C31.4128 43.6255 31.5232 43.9106 31.4956 44.2049C31.0633 49.1894 27.7618 59.3148 27.6238 59.747C27.4859 60.1333 27.118 60.4 26.7042 60.4ZM21.9128 58.4871H26.0053C26.7226 56.2339 29.0125 48.7848 29.5275 44.5912C28.3228 44.0026 24.9936 43.4784 21.922 43.2301V58.4871H21.9128Z" fill="#9F2A52"/>
<path d="M45.6674 64.17C44.4166 64.17 43.3039 63.8205 41.6945 63.2136L27.3571 58.4314C26.8513 58.2658 26.5846 57.7232 26.7502 57.2174C26.9157 56.7116 27.4675 56.4449 27.9641 56.6105L42.3382 61.4018C45.7869 62.7078 46.072 62.8089 54.1282 59.5074L63.6281 55.185C62.5705 53.9067 60.8692 53.3181 59.1954 53.732L51.8566 55.5713C51.3324 55.7 50.8174 55.3873 50.6979 54.8723C50.5691 54.3573 50.8818 53.8423 51.3968 53.7136L58.7356 51.8835C61.6141 51.1569 64.5662 52.518 65.8997 55.1758C66.0192 55.4057 66.0284 55.6816 65.9457 55.9207C65.8537 56.169 65.679 56.3622 65.4398 56.4725L54.9007 61.2639C49.8886 63.3239 47.6078 64.17 45.6674 64.17Z" fill="#9F2A52"/>
<path d="M47.6446 56.4269C47.2032 56.4269 46.7618 56.381 46.3295 56.2982L38.0159 54.6336C37.4917 54.5325 37.1606 54.0267 37.2618 53.5025C37.363 52.9783 37.8964 52.6472 38.3838 52.7483L46.6974 54.4129C47.3871 54.5509 48.1137 54.5325 48.7942 54.3669L50.6335 53.9071C50.5139 52.1598 49.6587 51.3229 47.5435 50.7895L30.3276 46.9637C29.8126 46.8442 29.4816 46.3384 29.6011 45.8234C29.7115 45.3084 30.2265 44.9865 30.7415 45.0969L47.9849 48.9318C51.1577 49.7227 52.5648 51.3965 52.5648 54.3577V54.6612C52.5648 55.1026 52.2613 55.4797 51.8382 55.5901L49.2632 56.2338C48.739 56.3626 48.1872 56.4269 47.6446 56.4269Z" fill="#9F2A52"/>
<path d="M55.4433 48.9041C51.7463 48.9041 48.739 45.8968 48.739 42.1999C48.739 38.5029 51.7463 35.4956 55.4433 35.4956C59.1403 35.4956 62.1475 38.5029 62.1475 42.1999C62.1475 45.8968 59.1403 48.9041 55.4433 48.9041ZM55.4433 37.4085C52.8039 37.4085 50.6519 39.5605 50.6519 42.1999C50.6519 44.8392 52.8039 46.9912 55.4433 46.9912C58.0827 46.9912 60.2346 44.8392 60.2346 42.1999C60.2346 39.5605 58.0827 37.4085 55.4433 37.4085Z" fill="#9F2A52"/>
<path d="M55.4433 45.0691C54.9099 45.0691 54.4868 44.6369 54.4868 44.1127V40.2777C54.4868 39.7443 54.9191 39.3213 55.4433 39.3213C55.9766 39.3213 56.3997 39.7535 56.3997 40.2777V44.1127C56.3997 44.6461 55.9766 45.0691 55.4433 45.0691Z" fill="#9F2A52"/>
<path d="M43.9476 37.4085C40.2506 37.4085 37.2433 34.4012 37.2433 30.7042C37.2433 27.0073 40.2506 24 43.9476 24C47.6446 24 50.6518 27.0073 50.6518 30.7042C50.6518 34.4012 47.6446 37.4085 43.9476 37.4085ZM43.9476 25.9129C41.3082 25.9129 39.1562 28.0649 39.1562 30.7042C39.1562 33.3436 41.3082 35.4956 43.9476 35.4956C46.587 35.4956 48.739 33.3436 48.739 30.7042C48.739 28.0649 46.587 25.9129 43.9476 25.9129Z" fill="#9F2A52"/>
<path d="M43.9476 33.5736C43.4142 33.5736 42.9911 33.1413 42.9911 32.6171V28.7914C42.9911 28.258 43.4234 27.835 43.9476 27.835C44.481 27.835 44.904 28.2672 44.904 28.7914V32.6263C44.904 33.1505 44.481 33.5736 43.9476 33.5736Z" fill="#9F2A52"/>
</svg>
