<svg width="88" height="87" viewBox="0 0 88 87" fill="none" xmlns="http://www.w3.org/2000/svg">
<ellipse cx="43.9999" cy="43.5" rx="44" ry="43.5" fill="#ECEBFD"/>
<path d="M60.804 37.8638H49.7189C49.4707 37.8638 49.2675 38.1306 49.2675 38.4566V58.4997C49.2675 58.8257 49.4707 59.0925 49.7189 59.0925L60.804 59.0921C61.0568 59.0921 61.2554 58.8253 61.2554 58.4993V38.4572C61.2554 38.1312 61.0568 37.8643 60.804 37.8643V37.8638Z" fill="#9F2A52"/>
<path d="M60.9163 35.6584H56.8993V27.7625C56.8993 26.2389 55.956 25 54.8005 25H30.3692C29.2092 25 28.2659 26.2389 28.2659 27.7625V50.2349C28.2659 51.7585 29.2092 52.9974 30.3692 52.9974H47.8674V53.5903H27.6969C26.7627 53.5903 25.9999 54.5861 25.9999 55.8131C25.9999 57.0401 26.7627 58.036 27.6969 58.036H47.8674V60.5792C47.8674 61.83 48.6256 62.8438 49.5689 62.8732C49.5825 62.8791 49.6006 62.8791 49.6139 62.8791H60.9152C61.8811 62.8791 62.6663 61.8475 62.6663 60.5792L62.6666 37.9524C62.6666 36.6837 61.8815 35.6581 60.9155 35.6581L60.9163 35.6584ZM44.1305 56.4065H41.0343V55.2208H44.1305V56.4065ZM47.8676 37.9525V49.2983H30.8612V28.6922H54.3038V35.6574H49.6144C48.653 35.6574 47.8676 36.6831 47.8676 37.9517V37.9525ZM61.7642 60.5793C61.7642 61.196 61.3806 61.6939 60.9156 61.6939H49.6143C49.1494 61.6939 48.7702 61.196 48.7702 60.5793V37.9525C48.7702 37.3418 49.1494 36.8439 49.6143 36.8439H60.9156C61.3806 36.8439 61.7642 37.3418 61.7642 37.9525V60.5793Z" fill="#9F2A52"/>
</svg>
