<svg width="88" height="87" viewBox="0 0 88 87" fill="none" xmlns="http://www.w3.org/2000/svg">
<ellipse cx="43.9999" cy="43.5" rx="44" ry="43.5" fill="#ECEBFD"/>
<path d="M40.7624 25.6918C38.6372 26.2145 36.7479 27.9859 35.7865 30.3386C33.6358 35.627 36.2586 41.9608 40.9987 42.9393C42.947 43.3441 44.8443 42.7537 46.464 41.244C48.2688 39.5571 49.247 37.1115 49.247 34.303C49.247 32.5487 48.9266 31.1319 48.1927 29.6645C46.6492 26.5859 43.6554 24.9834 40.7624 25.6918Z" fill="#9F2A52"/>
<path d="M57.7231 42.821C55.6485 43.2513 53.9026 44.2127 52.4436 45.7475C51.6423 46.5909 51.1953 47.2404 50.6638 48.3452C48.1338 53.6503 50.8833 60.0853 56.4832 61.9659C61.1305 63.5177 66.2833 61.4093 68.4846 57.0489C71.2254 51.6259 68.5185 45.0558 62.733 43.1246C61.2735 42.6353 59.2328 42.5174 57.7231 42.821ZM57.959 45.1319C58.1108 45.1909 58.3215 45.351 58.4399 45.4777L58.6506 45.7057L58.6757 48.1433C58.6924 49.4844 58.6674 50.5804 58.6251 50.5804C58.5829 50.5804 58.3972 50.7155 58.212 50.8757C57.7988 51.2299 57.5119 51.7781 57.4362 52.3686L57.3856 52.7901L55.4457 53.9205C53.7504 54.8986 53.4551 55.042 53.1264 55.0504C52.6794 55.0504 52.2579 54.8225 52.0806 54.4854C51.7686 53.8699 51.6841 52.3431 51.912 51.1709C52.3842 48.6493 53.8771 46.6671 56.1629 45.52C57.2 44.9968 57.4952 44.9295 57.959 45.1319ZM62.5807 45.2753C64.9255 46.1778 66.8144 48.4381 67.3376 50.9681C67.5655 52.0557 67.5144 53.8611 67.2447 54.3838C67.034 54.8053 66.6459 55.0499 66.2156 55.0499C65.8614 55.0499 65.6084 54.932 63.8457 53.92L61.8723 52.7813L61.8384 52.4187C61.7878 51.8199 61.5771 51.3812 61.1384 50.9681C60.9105 50.7573 60.683 50.58 60.6324 50.58C60.5734 50.58 60.5479 49.821 60.5479 48.2775C60.5479 45.6375 60.5734 45.5363 61.2224 45.1992C61.7038 44.9634 61.7711 44.9634 62.5807 45.2753ZM60.0424 51.7187C60.3882 51.896 60.5484 52.1657 60.5484 52.5622C60.5484 52.9753 60.3627 53.2622 59.9918 53.414C59.5447 53.5997 59.1399 53.4646 58.8363 53.0259C58.5411 52.6044 58.7435 51.9211 59.2244 51.7187C59.5786 51.5669 59.7471 51.5669 60.0424 51.7187ZM58.718 54.5611C59.2156 54.8225 60.0336 54.8225 60.5567 54.5611L60.9448 54.3754L62.9521 55.5309C64.7992 56.6018 64.9677 56.7202 65.1112 57.0321C65.4231 57.7155 65.2462 58.1625 64.3777 58.8287C61.6954 60.8782 57.8749 60.9371 55.1003 58.9637C54.299 58.3988 54.0544 58.078 54.0544 57.5887C54.0544 56.8975 54.2146 56.7541 56.3736 55.5058C57.4446 54.8814 58.322 54.3754 58.3387 54.3754C58.347 54.3754 58.5244 54.4599 58.718 54.5611Z" fill="#9F2A52"/>
<path d="M34.1673 44.3812C33.5011 44.533 32.7333 44.9211 32.0839 45.4355C31.4512 45.9331 30.0176 47.4172 29.5033 48.0922C28.3984 49.5345 27.3609 51.4912 26.7621 53.2371C26.4924 54.0384 26.4501 54.2746 26.4418 54.9659C26.4334 55.6998 26.4501 55.801 26.6692 56.1719C27.0824 56.872 27.9848 57.319 29.4188 57.5465C30.9117 57.7828 31.8142 58.0186 33.9394 58.727C37.4563 59.908 38.6878 60.1104 42.1625 60.1104C44.6925 60.1104 45.789 60.0092 47.4421 59.6044C48.6565 59.3175 50.3602 58.7692 50.3263 58.6936C50.3096 58.6597 50.1578 58.3732 49.9721 58.0608C47.6357 53.9451 48.0911 48.9352 51.1192 45.41L51.5407 44.929L51.0008 44.676C49.8876 44.1617 48.8584 44.17 47.619 44.7183C47.2392 44.8868 46.5814 45.157 46.1516 45.3171C43.2084 46.3969 40.5684 46.3379 37.6587 45.1235C37.1443 44.9128 36.5116 44.6514 36.2586 44.5414C35.6514 44.2884 34.8418 44.2294 34.1673 44.3812Z" fill="#9F2A52"/>
</svg>
