<svg width="432" height="220" viewBox="0 0 432 220" fill="none" xmlns="http://www.w3.org/2000/svg">
<path d="M40 183L424 182" stroke="url(#paint0_linear_3_12)" stroke-width="4" stroke-linecap="round"/>
<path d="M135.45 129.5C123.25 134 111 136.25 98.7 136.25C86.4 136.25 77.5 133.8 72 128.9C66.6 124 63.9 116.45 63.9 106.25C63.9 101.95 64.6 95.6 66 87.2C69 69.8 74.3 57.25 81.9 49.55C89.5 41.85 102.1 38 119.7 38C123.5 38 128.25 38.4 133.95 39.2C139.65 40 143.85 40.9 146.55 41.9L138.3 64.85C130.8 63.45 123.9 62.75 117.6 62.75C111.4 62.75 106.95 63.25 104.25 64.25C101.55 65.25 99.95 67.25 99.45 70.25L92.1 112.7H101.55C104.95 112.7 107.45 112.35 109.05 111.65C110.75 110.85 111.85 109.1 112.35 106.4L113.1 102.35H105.9L109.95 79.4H144.3L135.45 129.5ZM61.8 86.45C61.6 87.25 61.4 88.35 61.2 89.75L2.25 83.45H62.25L61.8 86.45ZM60.15 97.85C59.85 100.15 59.7 102.25 59.7 104.15L0.599999 97.85H60.15ZM65.85 69.05L64.05 75.2L5.85 69.05H65.85ZM59.85 112.25C60.25 115.05 60.6 117.15 60.9 118.55L2.55 112.25H59.85ZM72 54.65C70.6 57.25 69.6 59.25 69 60.65L12.9 54.65H72ZM64.35 126.8C65.65 129.1 67.15 130.95 68.85 132.35L16.95 126.8H64.35ZM86.25 40.25C83.35 42.05 81.1 43.7 79.5 45.2L33.6 40.25H86.25ZM265.62 134H208.62L225.12 40.25H253.62L241.32 110H269.82L265.62 134ZM204.12 133.55L140.52 126.8H205.32L204.12 133.55ZM209.22 104.6L145.62 97.85H210.42L209.22 104.6ZM211.77 90.2L148.17 83.45H212.97L211.77 90.2ZM214.32 75.8L150.72 69.05H215.52L214.32 75.8ZM216.87 61.4L153.27 54.65H217.92L216.87 61.4ZM206.67 119L143.07 112.25H207.87L206.67 119ZM219.27 47L155.82 40.25H220.47L219.27 47ZM411.759 64.25H391.059L378.909 134H350.409L362.559 64.25H342.009L346.359 40.25H416.109L411.759 64.25ZM345.759 133.55L282.159 126.8H346.959L345.759 133.55ZM350.859 104.6L287.259 97.85H352.059L350.859 104.6ZM353.409 90.2L289.809 83.45H354.609L353.409 90.2ZM355.959 75.8L292.359 69.05H357.159L355.959 75.8ZM348.309 119L284.709 112.25H349.509L348.309 119ZM337.959 61.4L274.359 54.65H339.009L337.959 61.4ZM340.359 47L276.909 40.25H341.559L340.359 47Z" fill="url(#paint1_linear_3_12)"/>
<path d="M97.72 167.99C97.72 167.23 97.49 166.56 97.03 165.98C96.59 165.46 96.37 165.17 96.37 165.11C96.37 164.81 96.81 164.66 97.69 164.66C97.87 164.66 98.12 164.67 98.44 164.69C98.78 164.71 99.11 164.76 99.43 164.84C99.75 164.92 100.02 165.04 100.24 165.2C100.48 165.36 100.6 165.58 100.6 165.86V166.16C100.6 167.48 100.51 168.65 100.33 169.67C100.25 170.17 100.17 170.59 100.09 170.93C100.01 171.25 99.89 171.52 99.73 171.74C99.59 171.94 99.4 172.11 99.16 172.25C98.94 172.37 98.63 172.49 98.23 172.61C96.95 173.03 95.83 173.24 94.87 173.24H94.42C93.16 173.24 92.03 173.01 91.03 172.55C90.05 172.07 89.21 171.43 88.51 170.63C87.83 169.81 87.3 168.87 86.92 167.81C86.56 166.75 86.38 165.62 86.38 164.42V163.91C86.38 162.65 86.57 161.47 86.95 160.37C87.33 159.25 87.87 158.28 88.57 157.46C89.29 156.62 90.16 155.96 91.18 155.48C92.22 155 93.39 154.76 94.69 154.76H95.17C96.77 154.76 97.98 154.98 98.8 155.42C99.64 155.86 100.06 156.46 100.06 157.22C100.06 158.02 99.78 158.42 99.22 158.42L97.36 157.61C96.5 157.27 95.67 157.1 94.87 157.1C93.21 157.1 91.89 157.69 90.91 158.87C89.93 160.05 89.44 161.72 89.44 163.88C89.44 164.74 89.53 165.58 89.71 166.4C89.91 167.2 90.22 167.92 90.64 168.56C91.06 169.2 91.61 169.72 92.29 170.12C92.97 170.5 93.81 170.69 94.81 170.69C95.63 170.69 96.32 170.46 96.88 170C97.44 169.52 97.72 168.85 97.72 167.99ZM111.734 171.71C111.734 171.59 111.794 171.37 111.914 171.05C112.114 170.53 112.224 170.05 112.244 169.61C112.284 169.17 112.304 168.67 112.304 168.11L112.334 166.16V162.02C112.334 161 112.334 160.2 112.334 159.62C112.334 159.04 112.324 158.67 112.304 158.51C112.264 158.33 112.214 158.14 112.154 157.94C112.114 157.74 112.044 157.52 111.944 157.28C111.844 157.04 111.764 156.82 111.704 156.62C111.664 156.42 111.644 156.23 111.644 156.05C111.644 155.71 111.804 155.44 112.124 155.24C112.444 155.02 112.854 154.91 113.354 154.91H113.654C114.314 154.91 114.854 155.04 115.274 155.3C115.714 155.54 115.934 155.91 115.934 156.41C115.934 156.51 115.914 156.63 115.874 156.77C115.834 156.89 115.794 157.03 115.754 157.19C115.654 157.49 115.534 157.87 115.394 158.33C115.294 158.77 115.244 160.69 115.244 164.09C115.244 167.53 115.334 169.46 115.514 169.88C115.674 170.34 115.954 170.62 116.354 170.72C116.774 170.82 117.444 170.87 118.364 170.87C118.824 170.87 119.204 170.85 119.504 170.81C119.824 170.77 120.104 170.72 120.344 170.66C120.604 170.6 120.834 170.53 121.034 170.45C121.234 170.35 121.444 170.26 121.664 170.18C122.124 170 122.454 169.91 122.654 169.91C123.234 169.91 123.524 170.3 123.524 171.08V171.38C123.524 172.04 123.324 172.48 122.924 172.7C122.524 172.92 121.794 173.03 120.734 173.03H118.124L117.794 173H117.464C114.864 173 113.274 172.93 112.694 172.79C112.054 172.67 111.734 172.31 111.734 171.71ZM140.219 170.81V171.05C140.219 171.69 140.019 172.13 139.619 172.37C139.219 172.59 138.739 172.7 138.179 172.7C137.919 172.7 137.719 172.69 137.579 172.67C137.439 172.63 137.319 172.54 137.219 172.4C137.119 172.26 137.019 172.04 136.919 171.74C136.839 171.44 136.729 171.02 136.589 170.48C136.449 169.9 136.299 169.42 136.139 169.04C135.979 168.66 135.779 168.36 135.539 168.14C135.319 167.9 135.029 167.73 134.669 167.63C134.329 167.53 133.879 167.48 133.319 167.48C132.259 167.48 131.439 167.52 130.859 167.6C130.279 167.68 129.839 167.83 129.539 168.05C129.239 168.25 129.019 168.54 128.879 168.92C128.739 169.28 128.579 169.75 128.399 170.33C128.259 170.75 128.159 171.17 128.099 171.59C128.059 171.99 127.979 172.28 127.859 172.46C127.759 172.62 127.479 172.7 127.019 172.7C126.559 172.7 126.189 172.51 125.909 172.13C125.649 171.75 125.519 171.33 125.519 170.87C125.519 170.39 125.679 169.93 125.999 169.49C126.159 169.27 126.289 169.06 126.389 168.86C126.509 168.64 126.609 168.44 126.689 168.26C126.769 168.08 126.959 167.54 127.259 166.64C127.559 165.72 127.999 164.44 128.579 162.8C129.139 161.16 129.599 159.84 129.959 158.84C130.339 157.82 130.629 157.1 130.829 156.68C131.209 155.88 131.539 155.37 131.819 155.15C132.099 154.93 132.449 154.82 132.869 154.82C133.289 154.82 133.669 154.97 134.009 155.27C134.369 155.57 134.749 156.15 135.149 157.01C135.149 157.01 136.489 160.79 139.169 168.35C139.309 168.75 139.519 169.18 139.799 169.64C140.079 170.1 140.219 170.49 140.219 170.81ZM133.049 165.65C134.369 165.65 135.029 165.53 135.029 165.29V165.2C135.029 165.16 135.009 165.08 134.969 164.96C134.949 164.84 134.919 164.67 134.879 164.45L134.669 163.7C134.669 163.68 134.649 163.61 134.609 163.49C134.589 163.45 134.469 162.93 134.249 161.93C134.009 160.97 133.709 160.06 133.349 159.2C132.989 158.36 132.779 157.94 132.719 157.94C132.659 157.94 132.509 158.25 132.269 158.87C130.829 162.47 130.109 164.6 130.109 165.26V165.35C130.109 165.55 130.549 165.65 131.429 165.65H133.049ZM144.754 172.73C143.954 172.73 143.554 172.39 143.554 171.71C143.554 171.57 143.614 171.31 143.734 170.93L144.064 169.73C144.104 169.51 144.134 168.94 144.154 168.02C144.174 167.1 144.184 165.82 144.184 164.18C144.184 162.54 144.174 161.24 144.154 160.28C144.134 159.32 144.104 158.7 144.064 158.42C144.024 158.14 143.974 157.88 143.914 157.64C143.874 157.4 143.824 157.18 143.764 156.98C143.644 156.58 143.584 156.27 143.584 156.05C143.584 155.41 144.154 155.09 145.294 155.09C145.834 155.09 146.314 155.22 146.734 155.48C147.154 155.74 147.364 156.1 147.364 156.56C147.364 156.78 147.334 157.07 147.274 157.43L147.184 158.06C147.164 158.2 147.144 158.43 147.124 158.75C147.124 159.07 147.124 159.48 147.124 159.98C147.124 161 147.184 161.63 147.304 161.87C147.424 162.11 147.634 162.23 147.934 162.23C148.234 162.23 149.234 161.2 150.934 159.14C151.254 158.76 151.504 158.45 151.684 158.21C151.884 157.97 152.044 157.77 152.164 157.61C152.284 157.43 152.384 157.26 152.464 157.1C152.544 156.94 152.644 156.76 152.764 156.56C153.044 156.04 153.334 155.67 153.634 155.45C153.934 155.23 154.414 155.12 155.074 155.12C155.894 155.12 156.304 155.37 156.304 155.87C156.304 155.93 155.444 156.99 153.724 159.05C152.004 161.11 151.144 162.41 151.144 162.95C151.144 163.05 151.244 163.28 151.444 163.64C151.644 163.98 151.904 164.4 152.224 164.9C152.544 165.4 152.904 165.94 153.304 166.52C153.704 167.1 154.094 167.67 154.474 168.23C154.874 168.79 155.244 169.31 155.584 169.79C155.944 170.25 156.224 170.61 156.424 170.87C157.044 171.69 157.354 172.18 157.354 172.34C157.354 172.7 156.994 172.88 156.274 172.88H155.824C155.444 172.88 155.134 172.86 154.894 172.82C154.674 172.78 154.454 172.66 154.234 172.46C154.034 172.24 153.794 171.92 153.514 171.5C153.234 171.06 152.844 170.45 152.344 169.67C151.844 168.89 151.414 168.23 151.054 167.69C150.694 167.13 150.364 166.67 150.064 166.31C149.764 165.95 149.484 165.69 149.224 165.53C148.984 165.37 148.734 165.29 148.474 165.29C148.174 165.29 147.924 165.47 147.724 165.83C147.544 166.17 147.404 166.57 147.304 167.03C147.224 167.47 147.164 167.91 147.124 168.35C147.104 168.79 147.094 169.11 147.094 169.31L147.274 170.87C147.274 171.23 147.194 171.53 147.034 171.77C146.894 172.01 146.704 172.2 146.464 172.34C146.244 172.48 145.974 172.58 145.654 172.64C145.354 172.7 145.054 172.73 144.754 172.73ZM166.004 173.18C165.604 173.18 165.174 173.15 164.714 173.09C164.254 173.03 163.804 172.96 163.364 172.88C162.944 172.78 162.554 172.68 162.194 172.58C161.834 172.46 161.554 172.34 161.354 172.22C160.974 172 160.674 171.68 160.454 171.26C160.234 170.84 160.124 170.43 160.124 170.03C160.124 169.65 160.214 169.36 160.394 169.16C160.574 168.94 160.774 168.83 160.994 168.83C161.174 168.83 161.574 169.08 162.194 169.58C162.774 170.08 163.354 170.45 163.934 170.69C164.534 170.93 165.274 171.05 166.154 171.05C167.054 171.05 167.774 170.82 168.314 170.36C168.854 169.9 169.124 169.24 169.124 168.38C169.124 167.96 169.044 167.6 168.884 167.3C168.744 167 168.504 166.72 168.164 166.46C167.824 166.2 167.384 165.93 166.844 165.65C166.324 165.37 165.674 165.05 164.894 164.69C164.274 164.39 163.694 164.09 163.154 163.79C162.614 163.47 162.134 163.11 161.714 162.71C161.314 162.29 160.994 161.81 160.754 161.27C160.534 160.71 160.424 160.05 160.424 159.29C160.424 157.93 160.964 156.83 162.044 155.99C163.124 155.13 164.694 154.7 166.754 154.7C168.014 154.7 169.064 154.88 169.904 155.24C170.304 155.42 170.634 155.72 170.894 156.14C171.154 156.54 171.284 156.91 171.284 157.25C171.284 158.09 171.004 158.51 170.444 158.51C170.304 158.51 169.784 158.21 168.884 157.61C167.964 157.01 167.054 156.71 166.154 156.71C165.254 156.71 164.524 156.92 163.964 157.34C163.404 157.76 163.124 158.35 163.124 159.11C163.124 159.49 163.184 159.82 163.304 160.1C163.444 160.38 163.664 160.65 163.964 160.91C164.284 161.17 164.704 161.44 165.224 161.72C165.764 162 166.434 162.32 167.234 162.68C167.874 162.96 168.474 163.26 169.034 163.58C169.614 163.9 170.124 164.27 170.564 164.69C171.004 165.11 171.354 165.61 171.614 166.19C171.874 166.75 172.004 167.42 172.004 168.2C172.004 168.56 171.964 168.91 171.884 169.25C171.804 169.57 171.694 169.89 171.554 170.21C171.054 171.23 170.284 171.98 169.244 172.46C168.224 172.94 167.174 173.18 166.094 173.18H166.004ZM186.351 158.57L186.051 156.53C186.051 156.03 186.271 155.66 186.711 155.42C187.171 155.16 187.721 155.03 188.361 155.03C189.001 155.03 189.441 155.14 189.681 155.36C189.941 155.56 190.071 155.77 190.071 155.99V156.41L189.981 156.83L189.801 157.19L189.651 157.61C189.571 157.83 189.511 158.33 189.471 159.11C189.451 159.87 189.441 160.9 189.441 162.2L189.411 164.36C189.411 164.48 189.401 164.63 189.381 164.81C189.381 164.99 189.381 165.2 189.381 165.44L189.321 166.52C189.321 167.06 189.311 167.53 189.291 167.93C189.291 168.31 189.291 168.61 189.291 168.83C189.291 169.29 189.321 169.65 189.381 169.91C189.461 170.17 189.581 170.5 189.741 170.9C189.901 171.28 189.981 171.55 189.981 171.71C189.981 172.17 189.831 172.49 189.531 172.67C189.231 172.83 188.771 172.91 188.151 172.91C187.531 172.91 187.031 172.77 186.651 172.49C186.271 172.19 186.081 171.9 186.081 171.62C186.081 171.32 186.121 171.01 186.201 170.69L186.381 169.67C186.401 169.51 186.411 169.24 186.411 168.86C186.431 168.46 186.441 167.94 186.441 167.3C186.441 166.68 186.391 166.2 186.291 165.86C186.211 165.5 186.061 165.24 185.841 165.08C185.621 164.9 185.311 164.79 184.911 164.75C184.531 164.71 184.041 164.69 183.441 164.69C182.261 164.69 181.351 164.73 180.711 164.81C180.091 164.87 179.631 165.04 179.331 165.32C179.051 165.58 178.891 165.97 178.851 166.49C178.811 167.01 178.791 167.72 178.791 168.62C178.791 168.96 178.791 169.25 178.791 169.49C178.791 169.71 178.801 169.9 178.821 170.06L178.971 170.84C179.031 171.14 179.061 171.42 179.061 171.68C179.061 171.94 178.891 172.19 178.551 172.43C178.211 172.65 177.711 172.76 177.051 172.76C175.811 172.76 175.191 172.38 175.191 171.62C175.191 171.54 175.351 171.01 175.671 170.03C175.851 169.39 175.941 167.34 175.941 163.88V163.37C175.961 163.11 175.971 162.89 175.971 162.71C175.971 162.51 175.971 162.34 175.971 162.2V160.28C175.971 159.78 175.961 159.38 175.941 159.08C175.941 158.76 175.921 158.5 175.881 158.3C175.841 158.08 175.791 157.89 175.731 157.73C175.691 157.57 175.621 157.39 175.521 157.19C175.341 156.77 175.251 156.45 175.251 156.23C175.251 155.49 175.841 155.12 177.021 155.12C177.661 155.12 178.161 155.24 178.521 155.48C178.881 155.7 179.061 155.98 179.061 156.32C179.061 156.36 179.041 156.46 179.001 156.62C178.981 156.76 178.951 156.96 178.911 157.22C178.871 157.5 178.841 157.8 178.821 158.12C178.801 158.44 178.791 158.79 178.791 159.17C178.791 159.97 178.821 160.6 178.881 161.06C178.961 161.52 179.161 161.86 179.481 162.08C179.801 162.3 180.291 162.44 180.951 162.5C181.631 162.56 182.571 162.59 183.771 162.59C184.411 162.59 184.901 162.54 185.241 162.44C185.581 162.34 185.831 162.15 185.991 161.87C186.171 161.59 186.271 161.19 186.291 160.67C186.331 160.13 186.351 159.43 186.351 158.57ZM208.706 160.55C208.686 160.43 208.596 160.37 208.436 160.37C208.276 160.37 207.556 161.86 206.276 164.84C204.996 167.78 204.246 169.44 204.026 169.82C203.606 170.42 203.186 170.72 202.766 170.72C202.326 170.72 201.916 170.34 201.536 169.58C201.296 169.12 200.616 167.46 199.496 164.6C198.356 161.76 197.666 160.34 197.426 160.34C197.306 160.34 197.216 160.45 197.156 160.67C196.716 162.07 196.496 164.95 196.496 169.31C196.496 170.45 196.366 171.22 196.106 171.62C195.846 172 195.386 172.19 194.726 172.19C194.046 172.19 193.706 171.85 193.706 171.17C193.706 171.15 193.816 170.79 194.036 170.09C194.156 169.77 194.246 169.43 194.306 169.07C194.366 168.71 194.416 168.33 194.456 167.93C194.556 166.45 194.626 165.15 194.666 164.03C194.726 162.91 194.756 161.96 194.756 161.18C194.756 160.4 194.746 159.74 194.726 159.2C194.706 158.66 194.676 158.23 194.636 157.91L194.546 157.34C194.506 157.08 194.476 156.87 194.456 156.71C194.436 156.53 194.426 156.39 194.426 156.29C194.426 156.11 194.536 155.93 194.756 155.75C194.976 155.55 195.316 155.45 195.776 155.45C196.776 155.45 197.626 155.92 198.326 156.86C198.806 157.48 199.686 159.16 200.966 161.9C202.206 164.6 202.956 165.95 203.216 165.95L203.486 165.53L205.466 161.51C206.106 160.25 206.626 159.22 207.026 158.42C207.426 157.62 207.796 157 208.136 156.56C208.496 156.1 208.866 155.79 209.246 155.63C209.646 155.47 210.136 155.39 210.716 155.39C211.056 155.39 211.346 155.47 211.586 155.63C211.826 155.79 211.946 156.01 211.946 156.29L211.916 156.74L211.826 157.25C211.806 157.43 211.786 157.63 211.766 157.85C211.766 158.05 211.766 158.26 211.766 158.48V161.21C211.766 161.45 211.766 161.75 211.766 162.11C211.786 162.45 211.796 162.85 211.796 163.31V166.13C211.796 168.07 211.886 169.34 212.066 169.94L212.246 170.45C212.406 170.93 212.486 171.23 212.486 171.35C212.486 172.07 211.956 172.43 210.896 172.43C210.276 172.43 209.826 172.19 209.546 171.71C209.266 171.23 209.126 170.7 209.126 170.12L209.186 167.75C209.186 163.77 209.026 161.37 208.706 160.55ZM219.265 172.97H218.515C218.375 172.97 218.175 172.96 217.915 172.94C217.675 172.9 217.425 172.84 217.165 172.76C216.925 172.68 216.715 172.57 216.535 172.43C216.355 172.29 216.265 172.12 216.265 171.92C216.265 171.66 216.405 171.25 216.685 170.69C217.005 170.09 217.205 169.46 217.285 168.8C217.325 168.44 217.355 167.84 217.375 167C217.415 166.16 217.435 165.06 217.435 163.7C217.435 162.34 217.425 161.25 217.405 160.43C217.385 159.61 217.355 159.05 217.315 158.75C217.235 158.15 217.035 157.62 216.715 157.16C216.415 156.7 216.265 156.32 216.265 156.02C216.265 155.78 216.365 155.59 216.565 155.45C216.785 155.31 217.035 155.2 217.315 155.12C217.595 155.04 217.875 154.99 218.155 154.97C218.455 154.93 218.685 154.91 218.845 154.91H219.355C219.975 154.91 220.455 155.02 220.795 155.24C221.095 155.48 221.245 155.72 221.245 155.96V156.14C221.245 156.26 221.135 156.56 220.915 157.04C220.675 157.46 220.525 158.04 220.465 158.78C220.425 159.14 220.385 159.8 220.345 160.76C220.325 161.7 220.315 162.95 220.315 164.51C220.315 166.07 220.315 167.28 220.315 168.14C220.335 169 220.355 169.51 220.375 169.67C220.435 170.01 220.585 170.41 220.825 170.87C221.065 171.31 221.185 171.68 221.185 171.98C221.185 172.26 220.995 172.5 220.615 172.7C220.235 172.88 219.785 172.97 219.265 172.97ZM245.221 156.41C245.221 157.21 244.971 157.61 244.471 157.61C244.251 157.61 243.891 157.54 243.391 157.4C242.891 157.26 242.371 157.19 241.831 157.19C240.671 157.19 239.991 157.62 239.791 158.48C239.631 159.24 239.551 161.37 239.551 164.87L239.491 167.39V168.68C239.491 169.2 239.521 169.59 239.581 169.85C239.661 170.09 239.771 170.4 239.911 170.78C240.031 171.14 240.091 171.43 240.091 171.65C240.091 172.09 239.901 172.43 239.521 172.67C239.161 172.89 238.661 173 238.021 173H237.691C237.231 173 236.811 172.89 236.431 172.67C236.071 172.43 235.891 172.14 235.891 171.8C235.891 171.42 235.941 171.11 236.041 170.87L236.251 170.36C236.331 170.22 236.431 169.94 236.551 169.52C236.651 169.12 236.701 168.43 236.701 167.45V167.09C236.721 166.95 236.731 166.83 236.731 166.73C236.731 166.61 236.731 166.48 236.731 166.34V165.62L236.791 162.71C236.791 160.31 236.711 158.82 236.551 158.24C236.371 157.56 235.841 157.22 234.961 157.22C234.461 157.22 233.861 157.34 233.161 157.58C232.441 157.8 232.011 157.91 231.871 157.91C231.451 157.91 231.241 157.47 231.241 156.59C231.241 155.71 231.621 155.22 232.381 155.12C233.401 154.94 235.871 154.85 239.791 154.85H243.361C244.041 154.85 244.521 154.98 244.801 155.24C245.081 155.5 245.221 155.89 245.221 156.41ZM248.274 159.11C248.254 158.99 248.244 158.84 248.244 158.66C248.244 158.46 248.244 158.24 248.244 158C248.244 157.46 248.204 156.98 248.124 156.56C248.044 156.14 248.004 155.84 248.004 155.66C248.004 155.32 248.334 155.09 248.994 154.97C249.694 154.85 250.874 154.79 252.534 154.79H253.344C256.644 154.79 258.694 155.79 259.494 157.79C259.614 158.05 259.694 158.34 259.734 158.66C259.794 158.98 259.824 159.33 259.824 159.71C259.824 160.49 259.674 161.19 259.374 161.81C259.074 162.41 258.624 163.03 258.024 163.67C257.404 164.35 257.094 164.88 257.094 165.26C257.094 165.48 257.204 165.84 257.424 166.34C257.644 166.82 257.904 167.33 258.204 167.87C258.504 168.41 258.804 168.92 259.104 169.4C259.424 169.88 259.674 170.21 259.854 170.39C260.554 171.13 260.904 171.63 260.904 171.89V172.13C260.904 172.53 260.584 172.73 259.944 172.73H259.644C259.044 172.73 258.504 172.48 258.024 171.98C257.744 171.7 257.144 170.78 256.224 169.22C255.764 168.44 255.384 167.83 255.084 167.39C254.804 166.93 254.554 166.59 254.334 166.37C254.134 166.13 253.924 165.98 253.704 165.92C253.504 165.86 253.244 165.83 252.924 165.83C252.284 165.83 251.834 166.09 251.574 166.61C251.334 167.11 251.214 167.7 251.214 168.38C251.214 169.04 251.274 169.66 251.394 170.24C251.514 170.8 251.574 171.13 251.574 171.23C251.574 171.75 251.364 172.13 250.944 172.37C250.544 172.59 250.054 172.7 249.474 172.7C248.874 172.7 248.414 172.58 248.094 172.34C247.774 172.1 247.614 171.69 247.614 171.11C247.614 170.87 247.714 170.54 247.914 170.12C248.114 169.7 248.244 169.28 248.304 168.86C248.324 168.66 248.334 168.34 248.334 167.9C248.354 167.46 248.364 166.89 248.364 166.19V162.53L248.334 162.14V161.39L248.274 159.11ZM252.234 163.76H252.564C253.924 163.76 255.004 163.45 255.804 162.83C256.604 162.19 257.004 161.34 257.004 160.28V159.65C257.004 158.71 256.694 157.97 256.074 157.43C255.474 156.87 254.634 156.59 253.554 156.59H253.104L252.564 156.65C252.184 156.65 251.844 156.71 251.544 156.83C251.264 156.95 251.124 157.24 251.124 157.7L251.064 158.51V159.47L251.034 159.83V162.38C251.034 162.96 251.104 163.34 251.244 163.52C251.384 163.68 251.714 163.76 252.234 163.76ZM278.442 170.81V171.05C278.442 171.69 278.242 172.13 277.842 172.37C277.442 172.59 276.962 172.7 276.402 172.7C276.142 172.7 275.942 172.69 275.802 172.67C275.662 172.63 275.542 172.54 275.442 172.4C275.342 172.26 275.242 172.04 275.142 171.74C275.062 171.44 274.952 171.02 274.812 170.48C274.672 169.9 274.522 169.42 274.362 169.04C274.202 168.66 274.002 168.36 273.762 168.14C273.542 167.9 273.252 167.73 272.892 167.63C272.552 167.53 272.102 167.48 271.542 167.48C270.482 167.48 269.662 167.52 269.082 167.6C268.502 167.68 268.062 167.83 267.762 168.05C267.462 168.25 267.242 168.54 267.102 168.92C266.962 169.28 266.802 169.75 266.622 170.33C266.482 170.75 266.382 171.17 266.322 171.59C266.282 171.99 266.202 172.28 266.082 172.46C265.982 172.62 265.702 172.7 265.242 172.7C264.782 172.7 264.412 172.51 264.132 172.13C263.872 171.75 263.742 171.33 263.742 170.87C263.742 170.39 263.902 169.93 264.222 169.49C264.382 169.27 264.512 169.06 264.612 168.86C264.732 168.64 264.832 168.44 264.912 168.26C264.992 168.08 265.182 167.54 265.482 166.64C265.782 165.72 266.222 164.44 266.802 162.8C267.362 161.16 267.822 159.84 268.182 158.84C268.562 157.82 268.852 157.1 269.052 156.68C269.432 155.88 269.762 155.37 270.042 155.15C270.322 154.93 270.672 154.82 271.092 154.82C271.512 154.82 271.892 154.97 272.232 155.27C272.592 155.57 272.972 156.15 273.372 157.01C273.372 157.01 274.712 160.79 277.392 168.35C277.532 168.75 277.742 169.18 278.022 169.64C278.302 170.1 278.442 170.49 278.442 170.81ZM271.272 165.65C272.592 165.65 273.252 165.53 273.252 165.29V165.2C273.252 165.16 273.232 165.08 273.192 164.96C273.172 164.84 273.142 164.67 273.102 164.45L272.892 163.7C272.892 163.68 272.872 163.61 272.832 163.49C272.812 163.45 272.692 162.93 272.472 161.93C272.232 160.97 271.932 160.06 271.572 159.2C271.212 158.36 271.002 157.94 270.942 157.94C270.882 157.94 270.732 158.25 270.492 158.87C269.052 162.47 268.332 164.6 268.332 165.26V165.35C268.332 165.55 268.772 165.65 269.652 165.65H271.272ZM293.776 156.65C293.776 155.85 294.286 155.45 295.306 155.45C295.766 155.45 296.146 155.61 296.446 155.93C296.766 156.23 296.926 156.58 296.926 156.98C296.926 157.36 296.816 157.85 296.596 158.45C296.496 158.75 296.416 159.06 296.356 159.38C296.296 159.7 296.246 160.03 296.206 160.37C296.166 160.71 296.136 161.19 296.116 161.81C296.096 162.41 296.086 163.15 296.086 164.03V164.57C296.066 164.75 296.056 165.09 296.056 165.59C296.056 166.07 296.056 166.71 296.056 167.51C296.056 169.09 295.996 170.41 295.876 171.47C295.796 172.13 295.456 172.46 294.856 172.46C294.216 172.46 293.466 171.91 292.606 170.81C292.366 170.51 291.136 168.63 288.916 165.17C286.696 161.75 285.386 160.04 284.986 160.04C284.706 160.04 284.566 162.56 284.566 167.6C284.566 167.88 284.576 168.18 284.596 168.5C284.616 168.82 284.646 169.17 284.686 169.55L284.776 170.78C284.776 171.3 284.576 171.74 284.176 172.1C283.776 172.46 283.296 172.64 282.736 172.64C281.976 172.64 281.596 172.37 281.596 171.83C281.596 171.47 281.706 171.04 281.926 170.54C282.266 169.64 282.436 167.56 282.436 164.3V163.73L282.496 162.62V159.86C282.496 158.76 282.406 157.85 282.226 157.13C282.166 156.95 282.116 156.8 282.076 156.68C282.056 156.54 282.026 156.43 281.986 156.35C281.966 156.25 281.946 156.16 281.926 156.08C281.926 155.66 282.236 155.45 282.856 155.45C284.096 155.45 285.256 156.1 286.336 157.4C287.456 158.68 288.896 160.66 290.656 163.34C292.436 166.02 293.406 167.36 293.566 167.36C293.866 167.36 294.016 164.94 294.016 160.1C294.016 159.46 294.006 158.92 293.986 158.48C293.966 158.02 293.936 157.66 293.896 157.4C293.856 157.2 293.826 157.01 293.806 156.83C293.786 156.77 293.776 156.71 293.776 156.65ZM305.956 173.18C305.556 173.18 305.126 173.15 304.666 173.09C304.206 173.03 303.756 172.96 303.316 172.88C302.896 172.78 302.506 172.68 302.146 172.58C301.786 172.46 301.506 172.34 301.306 172.22C300.926 172 300.626 171.68 300.406 171.26C300.186 170.84 300.076 170.43 300.076 170.03C300.076 169.65 300.166 169.36 300.346 169.16C300.526 168.94 300.726 168.83 300.946 168.83C301.126 168.83 301.526 169.08 302.146 169.58C302.726 170.08 303.306 170.45 303.886 170.69C304.486 170.93 305.226 171.05 306.106 171.05C307.006 171.05 307.726 170.82 308.266 170.36C308.806 169.9 309.076 169.24 309.076 168.38C309.076 167.96 308.996 167.6 308.836 167.3C308.696 167 308.456 166.72 308.116 166.46C307.776 166.2 307.336 165.93 306.796 165.65C306.276 165.37 305.626 165.05 304.846 164.69C304.226 164.39 303.646 164.09 303.106 163.79C302.566 163.47 302.086 163.11 301.666 162.71C301.266 162.29 300.946 161.81 300.706 161.27C300.486 160.71 300.376 160.05 300.376 159.29C300.376 157.93 300.916 156.83 301.996 155.99C303.076 155.13 304.646 154.7 306.706 154.7C307.966 154.7 309.016 154.88 309.856 155.24C310.256 155.42 310.586 155.72 310.846 156.14C311.106 156.54 311.236 156.91 311.236 157.25C311.236 158.09 310.956 158.51 310.396 158.51C310.256 158.51 309.736 158.21 308.836 157.61C307.916 157.01 307.006 156.71 306.106 156.71C305.206 156.71 304.476 156.92 303.916 157.34C303.356 157.76 303.076 158.35 303.076 159.11C303.076 159.49 303.136 159.82 303.256 160.1C303.396 160.38 303.616 160.65 303.916 160.91C304.236 161.17 304.656 161.44 305.176 161.72C305.716 162 306.386 162.32 307.186 162.68C307.826 162.96 308.426 163.26 308.986 163.58C309.566 163.9 310.076 164.27 310.516 164.69C310.956 165.11 311.306 165.61 311.566 166.19C311.826 166.75 311.956 167.42 311.956 168.2C311.956 168.56 311.916 168.91 311.836 169.25C311.756 169.57 311.646 169.89 311.506 170.21C311.006 171.23 310.236 171.98 309.196 172.46C308.176 172.94 307.126 173.18 306.046 173.18H305.956ZM317.182 172.7H316.942C316.442 172.7 316.062 172.59 315.802 172.37C315.542 172.13 315.412 171.86 315.412 171.56C315.412 171.32 315.522 170.85 315.742 170.15C315.982 169.51 316.102 168.81 316.102 168.05L316.132 167.45V166.85L316.162 166.55V165.98L316.192 164.78V160.19C316.172 160.09 316.162 160 316.162 159.92C316.162 159.82 316.162 159.72 316.162 159.62C316.162 159.52 316.152 159.33 316.132 159.05C316.112 158.75 316.082 158.43 316.042 158.09C316.022 157.73 315.992 157.39 315.952 157.07C315.932 156.73 315.902 156.49 315.862 156.35C315.822 156.19 315.792 156.06 315.772 155.96C315.752 155.86 315.742 155.78 315.742 155.72C315.742 155.34 316.012 155.11 316.552 155.03C317.012 154.93 317.622 154.86 318.382 154.82C319.142 154.76 320.042 154.73 321.082 154.73H322.012C322.832 154.73 323.602 154.83 324.322 155.03C325.042 155.23 325.662 155.54 326.182 155.96C326.722 156.38 327.142 156.91 327.442 157.55C327.762 158.19 327.922 158.94 327.922 159.8V160.13C327.922 161.19 327.632 162.17 327.052 163.07C326.472 163.95 325.702 164.6 324.742 165.02C324.502 165.14 324.192 165.26 323.812 165.38C323.452 165.48 323.032 165.58 322.552 165.68C321.572 165.92 320.732 166.26 320.032 166.7C319.352 167.14 319.012 167.77 319.012 168.59L319.372 170.81C319.372 171.31 319.162 171.75 318.742 172.13C318.342 172.51 317.822 172.7 317.182 172.7ZM318.862 161.75V163.34C318.862 163.66 318.962 163.9 319.162 164.06C319.362 164.22 319.722 164.3 320.242 164.3H321.052C322.192 164.3 323.112 163.95 323.812 163.25C324.532 162.53 324.892 161.59 324.892 160.43V159.86C324.892 158.82 324.562 157.99 323.902 157.37C323.242 156.75 322.292 156.44 321.052 156.44H320.692C320.612 156.46 320.542 156.47 320.482 156.47C320.442 156.47 320.402 156.47 320.362 156.47C319.662 156.47 319.232 156.65 319.072 157.01C318.952 157.27 318.892 158.46 318.892 160.58V161.36L318.862 161.75ZM345.846 163.34V164.24C345.846 164.84 345.786 165.54 345.666 166.34C345.566 167.12 345.346 167.91 345.006 168.71C344.686 169.49 344.216 170.23 343.596 170.93C342.996 171.63 342.206 172.2 341.226 172.64C340.146 173.12 339.066 173.36 337.986 173.36H337.716C336.476 173.36 335.396 173.12 334.476 172.64C333.556 172.16 332.786 171.52 332.166 170.72C331.546 169.9 331.076 168.97 330.756 167.93C330.456 166.87 330.306 165.78 330.306 164.66V164.06C330.306 162.86 330.456 161.7 330.756 160.58C331.056 159.46 331.516 158.47 332.136 157.61C332.776 156.73 333.576 156.03 334.536 155.51C335.516 154.97 336.666 154.7 337.986 154.7H338.586C339.466 154.7 340.386 154.91 341.346 155.33C342.126 155.67 342.796 156.13 343.356 156.71C343.936 157.27 344.406 157.91 344.766 158.63C345.146 159.35 345.416 160.12 345.576 160.94C345.756 161.74 345.846 162.54 345.846 163.34ZM333.126 163.79V164.45C333.126 166.37 333.496 167.94 334.236 169.16C334.656 169.88 335.186 170.44 335.826 170.84C336.466 171.22 337.056 171.41 337.596 171.41H338.196C339.076 171.41 339.806 171.17 340.386 170.69C340.966 170.19 341.426 169.58 341.766 168.86C342.126 168.12 342.376 167.33 342.516 166.49C342.656 165.65 342.726 164.88 342.726 164.18V163.64C342.726 163.18 342.696 162.65 342.636 162.05C342.576 161.45 342.446 160.85 342.246 160.25C342.066 159.63 341.806 159.05 341.466 158.51C341.126 157.95 340.686 157.5 340.146 157.16C339.506 156.76 338.856 156.56 338.196 156.56H337.776C337.196 156.56 336.596 156.73 335.976 157.07C335.416 157.39 334.956 157.8 334.596 158.3C334.236 158.8 333.946 159.36 333.726 159.98C333.506 160.58 333.346 161.21 333.246 161.87C333.166 162.53 333.126 163.17 333.126 163.79ZM349.993 159.11C349.973 158.99 349.963 158.84 349.963 158.66C349.963 158.46 349.963 158.24 349.963 158C349.963 157.46 349.923 156.98 349.843 156.56C349.763 156.14 349.723 155.84 349.723 155.66C349.723 155.32 350.053 155.09 350.713 154.97C351.413 154.85 352.593 154.79 354.253 154.79H355.063C358.363 154.79 360.413 155.79 361.213 157.79C361.333 158.05 361.413 158.34 361.453 158.66C361.513 158.98 361.543 159.33 361.543 159.71C361.543 160.49 361.393 161.19 361.093 161.81C360.793 162.41 360.343 163.03 359.743 163.67C359.123 164.35 358.813 164.88 358.813 165.26C358.813 165.48 358.923 165.84 359.143 166.34C359.363 166.82 359.623 167.33 359.923 167.87C360.223 168.41 360.523 168.92 360.823 169.4C361.143 169.88 361.393 170.21 361.573 170.39C362.273 171.13 362.623 171.63 362.623 171.89V172.13C362.623 172.53 362.303 172.73 361.663 172.73H361.363C360.763 172.73 360.223 172.48 359.743 171.98C359.463 171.7 358.863 170.78 357.943 169.22C357.483 168.44 357.103 167.83 356.803 167.39C356.523 166.93 356.273 166.59 356.053 166.37C355.853 166.13 355.643 165.98 355.423 165.92C355.223 165.86 354.963 165.83 354.643 165.83C354.003 165.83 353.553 166.09 353.293 166.61C353.053 167.11 352.933 167.7 352.933 168.38C352.933 169.04 352.993 169.66 353.113 170.24C353.233 170.8 353.293 171.13 353.293 171.23C353.293 171.75 353.083 172.13 352.663 172.37C352.263 172.59 351.773 172.7 351.193 172.7C350.593 172.7 350.133 172.58 349.813 172.34C349.493 172.1 349.333 171.69 349.333 171.11C349.333 170.87 349.433 170.54 349.633 170.12C349.833 169.7 349.963 169.28 350.023 168.86C350.043 168.66 350.053 168.34 350.053 167.9C350.073 167.46 350.083 166.89 350.083 166.19V162.53L350.053 162.14V161.39L349.993 159.11ZM353.953 163.76H354.283C355.643 163.76 356.723 163.45 357.523 162.83C358.323 162.19 358.723 161.34 358.723 160.28V159.65C358.723 158.71 358.413 157.97 357.793 157.43C357.193 156.87 356.353 156.59 355.273 156.59H354.823L354.283 156.65C353.903 156.65 353.563 156.71 353.263 156.83C352.983 156.95 352.843 157.24 352.843 157.7L352.783 158.51V159.47L352.753 159.83V162.38C352.753 162.96 352.823 163.34 352.963 163.52C353.103 163.68 353.433 163.76 353.953 163.76ZM378.991 156.41C378.991 157.21 378.741 157.61 378.241 157.61C378.021 157.61 377.661 157.54 377.161 157.4C376.661 157.26 376.141 157.19 375.601 157.19C374.441 157.19 373.761 157.62 373.561 158.48C373.401 159.24 373.321 161.37 373.321 164.87L373.261 167.39V168.68C373.261 169.2 373.291 169.59 373.351 169.85C373.431 170.09 373.541 170.4 373.681 170.78C373.801 171.14 373.861 171.43 373.861 171.65C373.861 172.09 373.671 172.43 373.291 172.67C372.931 172.89 372.431 173 371.791 173H371.461C371.001 173 370.581 172.89 370.201 172.67C369.841 172.43 369.661 172.14 369.661 171.8C369.661 171.42 369.711 171.11 369.811 170.87L370.021 170.36C370.101 170.22 370.201 169.94 370.321 169.52C370.421 169.12 370.471 168.43 370.471 167.45V167.09C370.491 166.95 370.501 166.83 370.501 166.73C370.501 166.61 370.501 166.48 370.501 166.34V165.62L370.561 162.71C370.561 160.31 370.481 158.82 370.321 158.24C370.141 157.56 369.611 157.22 368.731 157.22C368.231 157.22 367.631 157.34 366.931 157.58C366.211 157.8 365.781 157.91 365.641 157.91C365.221 157.91 365.011 157.47 365.011 156.59C365.011 155.71 365.391 155.22 366.151 155.12C367.171 154.94 369.641 154.85 373.561 154.85H377.131C377.811 154.85 378.291 154.98 378.571 155.24C378.851 155.5 378.991 155.89 378.991 156.41Z" fill="black"/>
<path d="M186.96 209.12C186.693 209.12 186.407 209.1 186.1 209.06C185.793 209.02 185.493 208.973 185.2 208.92C184.92 208.853 184.66 208.787 184.42 208.72C184.18 208.64 183.993 208.56 183.86 208.48C183.607 208.333 183.407 208.12 183.26 207.84C183.113 207.56 183.04 207.287 183.04 207.02C183.04 206.767 183.1 206.573 183.22 206.44C183.34 206.293 183.473 206.22 183.62 206.22C183.74 206.22 184.007 206.387 184.42 206.72C184.807 207.053 185.193 207.3 185.58 207.46C185.98 207.62 186.473 207.7 187.06 207.7C187.66 207.7 188.14 207.547 188.5 207.24C188.86 206.933 189.04 206.493 189.04 205.92C189.04 205.64 188.987 205.4 188.88 205.2C188.787 205 188.627 204.813 188.4 204.64C188.173 204.467 187.88 204.287 187.52 204.1C187.173 203.913 186.74 203.7 186.22 203.46C185.807 203.26 185.42 203.06 185.06 202.86C184.7 202.647 184.38 202.407 184.1 202.14C183.833 201.86 183.62 201.54 183.46 201.18C183.313 200.807 183.24 200.367 183.24 199.86C183.24 198.953 183.6 198.22 184.32 197.66C185.04 197.087 186.087 196.8 187.46 196.8C188.3 196.8 189 196.92 189.56 197.16C189.827 197.28 190.047 197.48 190.22 197.76C190.393 198.027 190.48 198.273 190.48 198.5C190.48 199.06 190.293 199.34 189.92 199.34C189.827 199.34 189.48 199.14 188.88 198.74C188.267 198.34 187.66 198.14 187.06 198.14C186.46 198.14 185.973 198.28 185.6 198.56C185.227 198.84 185.04 199.233 185.04 199.74C185.04 199.993 185.08 200.213 185.16 200.4C185.253 200.587 185.4 200.767 185.6 200.94C185.813 201.113 186.093 201.293 186.44 201.48C186.8 201.667 187.247 201.88 187.78 202.12C188.207 202.307 188.607 202.507 188.98 202.72C189.367 202.933 189.707 203.18 190 203.46C190.293 203.74 190.527 204.073 190.7 204.46C190.873 204.833 190.96 205.28 190.96 205.8C190.96 206.04 190.933 206.273 190.88 206.5C190.827 206.713 190.753 206.927 190.66 207.14C190.327 207.82 189.813 208.32 189.12 208.64C188.44 208.96 187.74 209.12 187.02 209.12H186.96ZM195.084 208.98H194.584C194.491 208.98 194.358 208.973 194.184 208.96C194.024 208.933 193.858 208.893 193.684 208.84C193.524 208.787 193.384 208.713 193.264 208.62C193.144 208.527 193.084 208.413 193.084 208.28C193.084 208.107 193.178 207.833 193.364 207.46C193.578 207.06 193.711 206.64 193.764 206.2C193.791 205.96 193.811 205.56 193.824 205C193.851 204.44 193.864 203.707 193.864 202.8C193.864 201.893 193.858 201.167 193.844 200.62C193.831 200.073 193.811 199.7 193.784 199.5C193.731 199.1 193.598 198.747 193.384 198.44C193.184 198.133 193.084 197.88 193.084 197.68C193.084 197.52 193.151 197.393 193.284 197.3C193.431 197.207 193.598 197.133 193.784 197.08C193.971 197.027 194.158 196.993 194.344 196.98C194.544 196.953 194.698 196.94 194.804 196.94H195.144C195.558 196.94 195.878 197.013 196.104 197.16C196.304 197.32 196.404 197.48 196.404 197.64V197.76C196.404 197.84 196.331 198.04 196.184 198.36C196.024 198.64 195.924 199.027 195.884 199.52C195.858 199.76 195.831 200.2 195.804 200.84C195.791 201.467 195.784 202.3 195.784 203.34C195.784 204.38 195.784 205.187 195.784 205.76C195.798 206.333 195.811 206.673 195.824 206.78C195.864 207.007 195.964 207.273 196.124 207.58C196.284 207.873 196.364 208.12 196.364 208.32C196.364 208.507 196.238 208.667 195.984 208.8C195.731 208.92 195.431 208.98 195.084 208.98ZM207.024 198.1C207.024 197.567 207.364 197.3 208.044 197.3C208.351 197.3 208.604 197.407 208.804 197.62C209.017 197.82 209.124 198.053 209.124 198.32C209.124 198.573 209.051 198.9 208.904 199.3C208.837 199.5 208.784 199.707 208.744 199.92C208.704 200.133 208.671 200.353 208.644 200.58C208.617 200.807 208.597 201.127 208.584 201.54C208.571 201.94 208.564 202.433 208.564 203.02V203.38C208.551 203.5 208.544 203.727 208.544 204.06C208.544 204.38 208.544 204.807 208.544 205.34C208.544 206.393 208.504 207.273 208.424 207.98C208.371 208.42 208.144 208.64 207.744 208.64C207.317 208.64 206.817 208.273 206.244 207.54C206.084 207.34 205.264 206.087 203.784 203.78C202.304 201.5 201.431 200.36 201.164 200.36C200.977 200.36 200.884 202.04 200.884 205.4C200.884 205.587 200.891 205.787 200.904 206C200.917 206.213 200.937 206.447 200.964 206.7L201.024 207.52C201.024 207.867 200.891 208.16 200.624 208.4C200.357 208.64 200.037 208.76 199.664 208.76C199.157 208.76 198.904 208.58 198.904 208.22C198.904 207.98 198.977 207.693 199.124 207.36C199.351 206.76 199.464 205.373 199.464 203.2V202.82L199.504 202.08V200.24C199.504 199.507 199.444 198.9 199.324 198.42C199.284 198.3 199.251 198.2 199.224 198.12C199.211 198.027 199.191 197.953 199.164 197.9C199.151 197.833 199.137 197.773 199.124 197.72C199.124 197.44 199.331 197.3 199.744 197.3C200.571 197.3 201.344 197.733 202.064 198.6C202.811 199.453 203.771 200.773 204.944 202.56C206.131 204.347 206.777 205.24 206.884 205.24C207.084 205.24 207.184 203.627 207.184 200.4C207.184 199.973 207.177 199.613 207.164 199.32C207.151 199.013 207.131 198.773 207.104 198.6C207.077 198.467 207.057 198.34 207.044 198.22C207.031 198.18 207.024 198.14 207.024 198.1ZM214.804 198.78C213.657 199.447 213.084 200.88 213.084 203.08C213.084 203.72 213.144 204.32 213.264 204.88C213.384 205.44 213.584 205.927 213.864 206.34C214.157 206.74 214.53 207.06 214.984 207.3C215.45 207.527 216.03 207.64 216.724 207.64C217.39 207.64 218.224 207.353 219.224 206.78C219.49 206.62 219.71 206.54 219.884 206.54C220.124 206.54 220.244 206.7 220.244 207.02C220.244 207.18 220.144 207.4 219.944 207.68C219.744 207.96 219.47 208.2 219.124 208.4C218.297 208.867 217.364 209.1 216.324 209.1H216.064C215.224 209.1 214.49 208.947 213.864 208.64C213.237 208.333 212.717 207.92 212.304 207.4C211.89 206.88 211.577 206.28 211.364 205.6C211.164 204.907 211.064 204.18 211.064 203.42V203.14C211.064 202.26 211.177 201.44 211.404 200.68C211.63 199.92 211.977 199.26 212.444 198.7C212.91 198.14 213.497 197.7 214.204 197.38C214.91 197.047 215.744 196.88 216.704 196.88C218.264 196.88 219.264 197.247 219.704 197.98C219.877 198.287 219.964 198.56 219.964 198.8C219.964 199.293 219.79 199.54 219.444 199.54C219.324 199.54 219.077 199.413 218.704 199.16C218.317 198.893 217.93 198.693 217.544 198.56C217.157 198.427 216.724 198.36 216.244 198.36C215.764 198.36 215.284 198.5 214.804 198.78ZM226.681 202L227.961 201.78C228.574 201.78 228.881 202.06 228.881 202.62C228.881 202.953 228.808 203.22 228.661 203.42C228.528 203.62 228.361 203.72 228.161 203.72C228.054 203.72 227.934 203.713 227.801 203.7C227.668 203.673 227.508 203.647 227.321 203.62C227.134 203.58 226.968 203.553 226.821 203.54C226.688 203.527 226.568 203.52 226.461 203.52C226.101 203.52 225.808 203.54 225.581 203.58C225.354 203.62 225.174 203.707 225.041 203.84C224.921 203.96 224.834 204.14 224.781 204.38C224.741 204.607 224.721 204.913 224.721 205.3C224.721 206.087 224.821 206.673 225.021 207.06C225.234 207.433 225.654 207.62 226.281 207.62C227.121 207.62 227.861 207.56 228.501 207.44C229.101 207.32 229.468 207.26 229.601 207.26C230.014 207.26 230.221 207.42 230.221 207.74V207.94C230.221 208.433 229.914 208.74 229.301 208.86C228.874 208.953 227.808 209 226.101 209H225.781C224.394 209 223.481 208.933 223.041 208.8C222.588 208.68 222.361 208.473 222.361 208.18V207.94L222.561 207.22C222.694 206.74 222.761 205.7 222.761 204.1L222.901 200.28C222.901 199.52 222.881 199.053 222.841 198.88C222.828 198.733 222.774 198.54 222.681 198.3C222.641 198.18 222.608 198.067 222.581 197.96C222.554 197.853 222.541 197.747 222.541 197.64C222.541 197.147 223.914 196.9 226.661 196.9H228.561C229.494 196.9 229.961 197.22 229.961 197.86C229.961 198.06 229.894 198.213 229.761 198.32C229.641 198.427 229.488 198.48 229.301 198.48C229.194 198.48 229.054 198.473 228.881 198.46C228.721 198.447 228.514 198.427 228.261 198.4C227.768 198.36 227.214 198.34 226.601 198.34C226.294 198.34 226.034 198.38 225.821 198.46C225.608 198.527 225.428 198.66 225.281 198.86C225.148 199.047 225.048 199.3 224.981 199.62C224.914 199.94 224.881 200.347 224.881 200.84C224.881 201.267 225.008 201.567 225.261 201.74C225.514 201.913 225.988 202 226.681 202ZM237.462 199.44V199.34C237.462 199.193 237.582 199.02 237.822 198.82C238.075 198.62 238.362 198.433 238.682 198.26C239.015 198.087 239.335 197.94 239.642 197.82C239.962 197.687 240.189 197.62 240.322 197.62H240.442C240.735 197.62 240.929 197.72 241.022 197.92C241.115 198.107 241.162 198.527 241.162 199.18L241.142 199.68C241.129 199.773 241.122 199.86 241.122 199.94C241.122 199.967 241.122 199.993 241.122 200.02L241.062 202.8V203.16L241.042 203.86V204.82C241.042 205.073 241.042 205.293 241.042 205.48C241.042 205.667 241.055 205.84 241.082 206C241.122 206.16 241.175 206.32 241.242 206.48C241.309 206.64 241.402 206.82 241.522 207.02C241.762 207.393 241.882 207.733 241.882 208.04C241.882 208.333 241.722 208.567 241.402 208.74C241.095 208.913 240.695 209 240.202 209H240.022C239.862 209 239.675 208.98 239.462 208.94C239.262 208.9 239.062 208.84 238.862 208.76C238.675 208.68 238.515 208.573 238.382 208.44C238.249 208.293 238.182 208.12 238.182 207.92C238.182 207.667 238.315 207.353 238.582 206.98C238.835 206.647 239.009 206.313 239.102 205.98C239.182 205.66 239.222 204.767 239.222 203.3C239.222 201.873 239.135 200.933 238.962 200.48C238.842 200.2 238.622 200.013 238.302 199.92C237.742 199.76 237.462 199.6 237.462 199.44ZM244.307 201.38V201.14C244.307 200.553 244.4 200.027 244.587 199.56C244.787 199.093 245.06 198.7 245.407 198.38C245.753 198.047 246.167 197.793 246.647 197.62C247.14 197.447 247.68 197.36 248.267 197.36C248.947 197.36 249.527 197.487 250.007 197.74C250.487 197.98 250.873 198.313 251.167 198.74C251.473 199.153 251.693 199.647 251.827 200.22C251.973 200.78 252.047 201.373 252.047 202V202.48C252.047 202.933 252.013 203.447 251.947 204.02C251.88 204.593 251.74 205.167 251.527 205.74C251.327 206.313 251.027 206.853 250.627 207.36C250.24 207.867 249.713 208.287 249.047 208.62C248.327 208.98 247.627 209.16 246.947 209.16H246.767C246.353 209.16 246.013 209.087 245.747 208.94C245.48 208.793 245.347 208.593 245.347 208.34C245.347 208.1 245.453 207.94 245.667 207.86C245.88 207.78 246.18 207.72 246.567 207.68C246.753 207.653 246.9 207.633 247.007 207.62C247.113 207.607 247.173 207.6 247.187 207.6C248.2 207.4 248.96 206.887 249.467 206.06C249.693 205.687 249.807 205.36 249.807 205.08C249.807 204.707 249.6 204.52 249.187 204.52L247.747 204.64C247.267 204.64 246.813 204.567 246.387 204.42C245.973 204.26 245.613 204.04 245.307 203.76C245 203.467 244.753 203.12 244.567 202.72C244.393 202.32 244.307 201.873 244.307 201.38ZM245.987 201.08V201.5C245.987 202.153 246.167 202.68 246.527 203.08C246.887 203.467 247.353 203.66 247.927 203.66H248.067C248.653 203.66 249.153 203.487 249.567 203.14C249.993 202.78 250.207 202.28 250.207 201.64V201.32C250.207 200.48 250.007 199.807 249.607 199.3C249.22 198.793 248.727 198.54 248.127 198.54H248.047C247.727 198.54 247.44 198.613 247.187 198.76C246.933 198.893 246.713 199.08 246.527 199.32C246.353 199.56 246.22 199.833 246.127 200.14C246.033 200.447 245.987 200.76 245.987 201.08ZM261.314 199.92C261.314 200.587 261.001 201.287 260.374 202.02C260.081 202.353 259.934 202.56 259.934 202.64C259.934 202.707 260.021 202.807 260.194 202.94C261.154 203.713 261.634 204.653 261.634 205.76V205.96C261.634 206.4 261.561 206.787 261.414 207.12C261.281 207.453 261.101 207.74 260.874 207.98C260.661 208.22 260.421 208.42 260.154 208.58C259.888 208.74 259.628 208.86 259.374 208.94C258.854 209.127 258.381 209.22 257.954 209.22H257.354C256.928 209.22 256.508 209.147 256.094 209C255.681 208.867 255.308 208.667 254.974 208.4C254.654 208.133 254.394 207.813 254.194 207.44C253.994 207.067 253.894 206.653 253.894 206.2V205.82C253.894 204.953 254.308 204.12 255.134 203.32C255.481 202.973 255.654 202.793 255.654 202.78C255.654 202.74 255.521 202.567 255.254 202.26C254.654 201.553 254.354 200.787 254.354 199.96C254.354 199.533 254.441 199.147 254.614 198.8C254.788 198.44 255.028 198.127 255.334 197.86C255.654 197.593 256.028 197.387 256.454 197.24C256.894 197.093 257.374 197.02 257.894 197.02H258.094C259.054 197.02 259.828 197.28 260.414 197.8C261.014 198.307 261.314 199.013 261.314 199.92ZM259.974 206.06V205.74C259.974 205.46 259.901 205.18 259.754 204.9C259.621 204.62 259.441 204.373 259.214 204.16C259.001 203.933 258.748 203.753 258.454 203.62C258.174 203.473 257.888 203.4 257.594 203.4H257.314C257.074 203.4 256.848 203.473 256.634 203.62C256.434 203.753 256.254 203.933 256.094 204.16C255.934 204.373 255.808 204.62 255.714 204.9C255.621 205.18 255.574 205.46 255.574 205.74L255.554 205.8C255.554 206.413 255.748 206.933 256.134 207.36C256.521 207.773 257.014 207.98 257.614 207.98H257.934C258.228 207.98 258.501 207.927 258.754 207.82C259.008 207.713 259.221 207.573 259.394 207.4C259.581 207.227 259.721 207.027 259.814 206.8C259.921 206.56 259.974 206.313 259.974 206.06ZM256.054 199.74V200C256.054 200.253 256.108 200.5 256.214 200.74C256.334 200.98 256.488 201.193 256.674 201.38C256.874 201.567 257.094 201.72 257.334 201.84C257.574 201.947 257.821 202 258.074 202H258.134C258.348 202 258.548 201.94 258.734 201.82C258.934 201.7 259.108 201.54 259.254 201.34C259.414 201.14 259.534 200.92 259.614 200.68C259.708 200.427 259.754 200.18 259.754 199.94V199.86C259.754 199.393 259.594 198.987 259.274 198.64C258.954 198.28 258.534 198.1 258.014 198.1H257.754C257.314 198.1 256.921 198.26 256.574 198.58C256.228 198.887 256.054 199.273 256.054 199.74ZM269.163 205.66C269.163 204.033 268.109 203.22 266.003 203.22H265.523C265.283 203.22 265.083 203.207 264.923 203.18C264.763 203.14 264.629 203.067 264.523 202.96C264.429 202.84 264.356 202.68 264.303 202.48C264.263 202.267 264.243 201.98 264.243 201.62C264.243 201.26 264.263 200.893 264.303 200.52C264.343 200.133 264.389 199.78 264.443 199.46C264.509 199.127 264.576 198.833 264.643 198.58C264.709 198.327 264.776 198.153 264.843 198.06C264.976 197.86 265.189 197.733 265.483 197.68C265.816 197.613 266.316 197.58 266.983 197.58C267.329 197.58 267.629 197.58 267.883 197.58C268.149 197.567 268.376 197.56 268.563 197.56L269.903 197.46C270.449 197.46 270.723 197.62 270.723 197.94C270.723 198.18 270.683 198.373 270.603 198.52C270.523 198.653 270.383 198.76 270.183 198.84C269.996 198.907 269.743 198.953 269.423 198.98C269.103 199.007 268.696 199.027 268.203 199.04C267.243 199.053 266.663 199.12 266.463 199.24C266.276 199.347 266.109 199.567 265.963 199.9C265.816 200.22 265.743 200.58 265.743 200.98C265.743 201.18 265.749 201.34 265.763 201.46C265.776 201.567 265.816 201.647 265.883 201.7C265.949 201.74 266.063 201.767 266.223 201.78C266.396 201.793 266.629 201.8 266.923 201.8C267.509 201.8 268.056 201.88 268.563 202.04C269.069 202.187 269.503 202.413 269.863 202.72C270.236 203.027 270.523 203.413 270.723 203.88C270.936 204.333 271.043 204.86 271.043 205.46C271.043 206.047 270.936 206.58 270.723 207.06C270.523 207.54 270.243 207.953 269.883 208.3C269.523 208.647 269.096 208.913 268.603 209.1C268.109 209.287 267.576 209.38 267.003 209.38H266.723C266.336 209.38 265.963 209.333 265.603 209.24C265.256 209.147 264.949 209.027 264.683 208.88C264.416 208.733 264.203 208.56 264.043 208.36C263.883 208.16 263.803 207.96 263.803 207.76C263.803 207.347 263.989 207.14 264.363 207.14C264.496 207.14 264.849 207.267 265.423 207.52C265.969 207.773 266.523 207.9 267.083 207.9C267.643 207.9 268.129 207.7 268.543 207.3C268.956 206.887 269.163 206.34 269.163 205.66Z" fill="black"/>
<defs>
<linearGradient id="paint0_linear_3_12" x1="232" y1="182.5" x2="232.003" y2="183.5" gradientUnits="userSpaceOnUse">
<stop stop-color="#630489"/>
<stop offset="1" stop-color="#9F2A52"/>
</linearGradient>
<linearGradient id="paint1_linear_3_12" x1="232.5" y1="0" x2="232.5" y2="144" gradientUnits="userSpaceOnUse">
<stop stop-color="#630489"/>
<stop offset="1" stop-color="#9F2A52"/>
</linearGradient>
</defs>
</svg>
