<svg width="54" height="54" viewBox="0 0 54 54" fill="none" xmlns="http://www.w3.org/2000/svg">
<circle r="26" transform="matrix(4.37114e-08 1 1 -4.37114e-08 27 27)" fill="white" stroke="#DBDBDB" stroke-width="2"/>
<path d="M28.7975 20C28.491 20 28.1829 20.1297 27.9486 20.3891L22.353 26.5541C22.1268 26.8047 22 27.144 22 27.4993C22 27.8529 22.1268 28.1922 22.353 28.4427L27.9486 34.6114C28.4188 35.1301 29.1794 35.1301 29.6496 34.6078C30.1181 34.0855 30.1165 33.2415 29.6464 32.7227L24.9077 27.4993L29.6464 22.2759C30.1165 21.7571 30.1181 20.915 29.6496 20.3926C29.4153 20.1297 29.1056 20 28.7975 20Z" fill="#9F2A52"/>
</svg>
