<svg width="1483" height="46" viewBox="0 0 1483 46" fill="none" xmlns="http://www.w3.org/2000/svg">
<line y1="-1.5" x2="1482.22" y2="-1.5" transform="matrix(1 0.00048446 0.00048446 -1 0.0108032 22.2891)" stroke="#DBDBDB" stroke-width="3"/>
<circle r="21.7886" transform="matrix(-0.000484417 1 1 0.000484417 174.609 22.3731)" fill="#F4F6FD" stroke="#DBDBDB"/>
<circle r="11.144" transform="matrix(-0.000484417 1 1 0.000484417 174.607 22.3731)" fill="#9F2A52"/>
<circle r="21.7886" transform="matrix(-0.000484417 1 1 0.000484417 542.375 22.5513)" fill="#F4F6FD" stroke="#DBDBDB"/>
<circle r="11.144" transform="matrix(-0.000484417 1 1 0.000484417 542.373 22.5513)" fill="#9F2A52"/>
<circle r="21.7886" transform="matrix(-0.000484417 1 1 0.000484417 928.717 22.7386)" fill="#F4F6FD" stroke="#DBDBDB"/>
<circle r="11.144" transform="matrix(-0.000484417 1 1 0.000484417 928.715 22.7385)" fill="#9F2A52"/>
<circle r="21.7886" transform="matrix(-0.000484417 1 1 0.000484417 1315.07 22.9256)" fill="#F4F6FD" stroke="#DBDBDB"/>
<circle r="11.144" transform="matrix(-0.000484417 1 1 0.000484417 1315.06 22.9256)" fill="#9F2A52"/>
</svg>
