<svg width="24" height="25" viewBox="0 0 24 25" fill="none" xmlns="http://www.w3.org/2000/svg">
<path fill-rule="evenodd" clip-rule="evenodd" d="M3.5 10.5577C3.5 5.95788 7.34388 2.23999 11.9934 2.23999C16.6561 2.23999 20.5 5.95788 20.5 10.5577C20.5 12.8757 19.657 15.0276 18.2695 16.8516C16.7388 18.8635 14.8522 20.6165 12.7285 21.9924C12.2425 22.3104 11.8039 22.3344 11.2704 21.9924C9.13474 20.6165 7.24809 18.8635 5.7305 16.8516C4.34198 15.0276 3.5 12.8757 3.5 10.5577ZM9.19423 10.8167C9.19423 12.3577 10.4517 13.5697 11.9934 13.5697C13.5362 13.5697 14.8058 12.3577 14.8058 10.8167C14.8058 9.28779 13.5362 8.01682 11.9934 8.01682C10.4517 8.01682 9.19423 9.28779 9.19423 10.8167Z" fill="#F5F5F5"/>
</svg>
