<svg width="24" height="25" viewBox="0 0 24 25" fill="none" xmlns="http://www.w3.org/2000/svg">
<path fill-rule="evenodd" clip-rule="evenodd" d="M16.9394 3.24023C18.2804 3.24023 19.5704 3.77023 20.5194 4.72123C21.4694 5.67023 22.0004 6.95023 22.0004 8.29023V16.1902C22.0004 18.9802 19.7304 21.2402 16.9394 21.2402H7.0604C4.2694 21.2402 2.0004 18.9802 2.0004 16.1902V8.29023C2.0004 5.50023 4.2594 3.24023 7.0604 3.24023H16.9394ZM18.5304 9.78023L18.6104 9.70023C18.8494 9.41023 18.8494 8.99023 18.5994 8.70023C18.4604 8.55123 18.2694 8.46023 18.0704 8.44023C17.8604 8.42923 17.6604 8.50023 17.5094 8.64023L13.0004 12.2402C12.4204 12.7212 11.5894 12.7212 11.0004 12.2402L6.5004 8.64023C6.1894 8.41023 5.7594 8.44023 5.5004 8.71023C5.2304 8.98023 5.2004 9.41023 5.4294 9.71023L5.5604 9.84023L10.1104 13.3902C10.6704 13.8302 11.3494 14.0702 12.0604 14.0702C12.7694 14.0702 13.4604 13.8302 14.0194 13.3902L18.5304 9.78023Z" fill="#F5F5F5"/>
</svg>
