<svg width="1005" height="807" viewBox="0 0 1005 807" fill="none" xmlns="http://www.w3.org/2000/svg">
<rect x="744.714" y="209" width="507" height="542.183" rx="14" transform="rotate(90 744.714 209)" fill="url(#paint0_linear_71_14)"/>
<g clip-path="url(#clip0_71_14)">
<path d="M825.204 328.453L859.426 297.152V400.827L786.743 330.66L825.204 328.453Z" fill="url(#paint1_linear_71_14)"/>
<g filter="url(#filter0_d_71_14)">
<path d="M825.204 328.453L859.426 297.152V400.827L786.743 330.66L825.204 328.453Z" fill="url(#paint2_linear_71_14)"/>
</g>
<path d="M858.641 400.108L816.098 328.95L825.203 328.454L830.802 323.365L858.641 400.108Z" fill="#9F2A52"/>
<path d="M825.201 328.453C825.969 332.242 827.233 335.943 828.969 339.487C831.69 346.153 835.719 355.295 840.534 365.293C845.348 375.291 849.953 384.209 853.354 390.649C855 394.205 857.014 397.626 859.372 400.872C858.435 397.115 857.013 393.459 855.133 389.973C852.203 383.398 847.859 374.346 843.045 364.392C838.231 354.439 834.307 346.378 830.748 338.857C829.299 335.241 827.441 331.757 825.201 328.453Z" fill="#9F2A52"/>
<path d="M825.465 314.718C824.894 318.505 825.233 322.352 826.459 326.022C826.812 329.816 828.058 333.509 830.122 336.876C830.692 333.104 830.354 329.271 829.128 325.617C828.773 321.808 827.527 318.101 825.465 314.718Z" fill="#9F2A52"/>
<path d="M811.757 271.303C811.738 275.102 812.591 278.867 814.269 282.382C815.144 286.142 816.927 289.701 819.502 292.83C819.578 289.016 818.741 285.23 817.042 281.706C816.157 277.955 814.355 274.409 811.757 271.303Z" fill="#9F2A52"/>
<path d="M792.555 229.417C792.98 233.209 794.297 236.886 796.427 240.226C797.765 243.862 799.936 247.231 802.811 250.134C802.44 246.333 801.119 242.646 798.939 239.325C797.633 235.677 795.458 232.303 792.555 229.417Z" fill="#9F2A52"/>
<path d="M768.06 189.604C768.988 193.336 770.767 196.872 773.293 200.008C775.097 203.494 777.695 206.633 780.933 209.241C780.042 205.499 778.26 201.957 775.7 198.837C773.893 195.352 771.296 192.213 768.06 189.604Z" fill="#9F2A52"/>
<path d="M571.525 682.803C570.218 686.445 569.759 690.293 570.172 694.126C569.763 697.942 570.237 701.809 571.567 705.499C572.912 701.864 573.372 698.009 572.919 694.176C573.326 690.359 572.852 686.493 571.525 682.803Z" fill="#9F2A52"/>
<path d="M378.09 798.827C374.172 797.83 370.007 797.426 365.836 797.638C361.704 797.27 357.494 797.523 353.453 798.384C357.361 799.408 361.534 799.813 365.707 799.573C369.839 799.939 374.049 799.685 378.09 798.827Z" fill="#9F2A52"/>
<path d="M738.707 152.36C740.058 156.006 742.287 159.367 745.248 162.223C749.434 167.222 753.358 171.005 753.986 170.645C752.604 167.023 750.378 163.683 747.445 160.827C743.311 155.782 739.282 152.089 738.707 152.36Z" fill="#9F2A52"/>
<path d="M567.167 637.571C566.274 641.326 566.304 645.222 567.253 649.004C568.051 655.183 569.31 660.194 570.057 660.16C570.908 656.413 570.87 652.536 569.946 648.766C569.219 642.57 567.818 637.591 567.167 637.571Z" fill="#9F2A52"/>
<path d="M427.309 796.695C423.257 795.988 419.028 795.927 414.897 796.518C408.167 796.951 402.693 797.735 402.711 798.262C406.755 798.94 410.964 798.994 415.081 798.421C421.826 798.037 427.269 797.154 427.309 796.695Z" fill="#9F2A52"/>
<path d="M704.697 118.178C704.121 118.628 707.627 122.681 712.441 127.185C717.255 131.689 721.651 135.156 722.227 134.751C722.802 134.346 719.349 130.247 714.482 125.744C709.616 121.24 705.22 117.727 704.697 118.178Z" fill="#9F2A52"/>
<path d="M556.903 609.405C556.149 609.509 556.893 613.384 558.515 618C560.137 622.616 561.982 626.404 562.71 626.33C563.438 626.256 562.765 622.369 561.098 617.735C559.43 613.101 557.611 609.283 556.903 609.405Z" fill="#9F2A52"/>
<path d="M666.39 87.5056C665.919 88.001 669.896 91.739 675.286 95.8374C678.349 98.5992 682.011 100.818 686.065 102.368C686.536 101.917 682.559 98.1793 677.117 94.081C671.675 89.9826 666.861 87.0102 666.39 87.5056Z" fill="#9F2A52"/>
<path d="M624.106 60.98C623.687 61.5655 628.345 64.628 634.205 68.2309C637.553 70.7258 641.476 72.5829 645.717 73.6803C646.136 73.1849 641.688 69.8522 635.723 66.2943C632.346 63.8168 628.381 62.0032 624.106 60.98Z" fill="#9F2A52"/>
<path d="M578.425 39.0474C581.563 41.736 585.301 43.8502 589.414 45.2625C593.11 47.3724 597.283 48.7845 601.659 49.4058C598.514 46.7239 594.778 44.6107 590.67 43.1908C586.963 41.0998 582.794 39.6892 578.425 39.0474Z" fill="#9F2A52"/>
<path d="M530.019 21.978C533.503 24.3325 537.51 26.049 541.793 27.0221C545.763 28.7104 550.088 29.6908 554.509 29.9045C551.051 27.5401 547.059 25.8222 542.787 24.8604C538.809 23.1482 534.461 22.1666 530.019 21.978Z" fill="#9F2A52"/>
<path d="M479.683 9.86231C483.445 11.8732 487.65 13.1919 492.033 13.7355C496.215 14.9858 500.641 15.5213 505.062 15.3118C501.294 13.3136 497.092 11.9959 492.713 11.4386C488.537 10.165 484.106 9.62885 479.683 9.86231Z" fill="#9F2A52"/>
<path d="M427.98 2.88214C431.99 4.47442 436.334 5.34788 440.749 5.44927C445.077 6.30921 449.564 6.40115 453.935 5.71948C449.912 4.11639 445.548 3.24256 441.115 3.15235C436.808 2.26608 432.332 2.174 427.98 2.88214Z" fill="#9F2A52"/>
<path d="M375.706 1.08055C379.924 2.25449 384.37 2.69834 388.788 2.38659C393.189 2.80074 397.641 2.43289 401.87 1.30575C397.654 0.124166 393.203 -0.304918 388.788 0.0447263C384.391 -0.380143 379.939 -0.0276781 375.706 1.08055Z" fill="#9F2A52"/>
<path d="M106.037 99.5811C109.468 97.6444 112.478 94.9342 114.894 91.6069C117.854 88.9032 120.248 85.5046 121.927 81.6216C118.491 83.5504 115.488 86.2767 113.103 89.6338C110.137 92.326 107.732 95.711 106.037 99.5811Z" fill="#9F2A52"/>
<path d="M22.8351 372.164C23.8185 368.57 23.9137 364.694 23.1152 360.76C23.1796 356.921 22.3112 352.95 20.5638 349.093C19.5711 352.684 19.4939 356.566 20.337 360.502C20.2596 364.337 21.1096 368.305 22.8351 372.164Z" fill="#9F2A52"/>
<path d="M323.591 4.593C327.924 5.35492 332.392 5.35492 336.725 4.593C341.158 4.54198 345.534 3.7305 349.598 2.20605C345.265 1.43913 340.796 1.43913 336.463 2.20605C332.029 2.24106 327.649 3.05322 323.591 4.593Z" fill="#9F2A52"/>
<path d="M77.4116 138.694C80.5974 136.33 83.2813 133.231 85.3019 129.583C87.9258 126.466 89.9344 122.746 91.21 118.643C88.0207 121.002 85.336 124.102 83.3196 127.754C80.6823 130.86 78.672 134.582 77.4116 138.694Z" fill="#9F2A52"/>
<path d="M32.0609 418.558C32.5443 414.816 32.1109 410.873 30.7866 406.963C30.296 403.045 28.9087 399.092 26.7059 395.337C26.2165 399.077 26.65 403.022 27.9802 406.931C28.452 410.85 29.8405 414.806 32.0609 418.558Z" fill="#9F2A52"/>
<path d="M272.36 13.4661C276.768 13.7661 281.201 13.2911 285.389 12.07C289.785 11.5654 294.019 10.3098 297.843 8.37692C293.417 8.05116 288.961 8.52674 284.761 9.77305C280.385 10.2893 276.171 11.5443 272.36 13.4661Z" fill="#9F2A52"/>
<path d="M53.4204 181.706C56.2981 178.901 58.598 175.426 60.1803 171.492C62.4352 168.017 64.0188 164.022 64.838 159.741C61.93 162.537 59.6166 166.029 58.0467 169.992C55.8125 173.463 54.2404 177.443 53.4204 181.706Z" fill="#9F2A52"/>
<path d="M47.5522 464.757C47.4804 460.899 46.4868 456.933 44.6318 453.101C43.6067 449.165 41.7063 445.289 39.0423 441.7C39.0852 445.572 40.0818 449.558 41.9678 453.402C43.0047 457.322 44.9026 461.181 47.5522 464.757Z" fill="#9F2A52"/>
<path d="M222.805 27.8321C227.221 27.6264 231.545 26.6617 235.521 24.9948C239.81 24.035 243.819 22.3172 247.295 19.9507C242.881 20.1694 238.56 21.1335 234.579 22.788C230.297 23.7646 226.292 25.4809 222.805 27.8321Z" fill="#9F2A52"/>
<path d="M34.6366 228.185C37.1323 224.949 38.9919 221.137 40.1058 216.974C41.9485 213.191 43.0437 208.962 43.3218 204.558C40.8375 207.804 38.9791 211.613 37.8525 215.769C36.0273 219.561 34.9332 223.786 34.6366 228.185Z" fill="#9F2A52"/>
<path d="M69.4103 510.084C68.7378 506.163 67.1738 502.24 64.8105 498.547C63.2558 494.655 60.8289 490.926 57.6842 487.598C58.3719 491.518 59.9348 495.438 62.2839 499.135C63.8579 503.022 66.2826 506.747 69.4103 510.084Z" fill="#9F2A52"/>
<path d="M176.125 48.0993C180.479 47.3506 184.599 45.8156 188.213 43.5957C194.492 40.5782 199.359 37.6958 198.993 37.1104C194.646 37.8782 190.53 39.4116 186.905 41.614C180.573 44.6765 175.707 47.5589 176.125 48.0993Z" fill="#9F2A52"/>
<path d="M22.0906 277.64C24.1336 273.989 25.4349 269.838 25.9084 265.461C27.3733 258.563 28.0928 252.758 27.4251 252.519C25.4008 256.182 24.101 260.328 23.6072 264.699C22.1453 271.671 21.4258 277.475 22.0906 277.64Z" fill="#9F2A52"/>
<path d="M97.9751 553.526C96.6644 549.6 94.4437 545.794 91.4594 542.36C87.2705 536.484 83.3789 531.871 82.7198 532.129C84.0526 536.051 86.2709 539.853 89.2355 543.296C93.483 549.223 97.3746 553.836 97.9751 553.526Z" fill="#9F2A52"/>
<path d="M134.106 74.8972C138.228 73.475 141.981 71.3625 145.147 68.6821C150.694 64.7639 154.828 61.206 154.409 60.6656C153.991 60.1251 149.176 62.9174 143.42 66.8807C137.664 70.8439 133.635 74.4018 134.106 74.8972Z" fill="#9F2A52"/>
<path d="M17.3421 329.363C18.731 325.305 19.3701 320.922 19.2225 316.467C19.5586 309.319 19.3215 303.453 18.6568 303.289C17.992 303.124 17.235 308.816 16.8076 316.148C16.3802 323.48 16.6804 329.272 17.3421 329.363Z" fill="#9F2A52"/>
<path d="M133.844 593.569C131.757 589.773 128.887 586.227 125.4 583.137C120.213 577.809 115.591 573.768 114.991 574.078C114.39 574.388 118.17 578.946 123.43 584.463C128.69 589.981 133.302 593.93 133.844 593.569Z" fill="#9F2A52"/>
<path d="M419.766 579.939C419.865 580.273 420.113 580.559 420.456 580.736C420.799 580.913 421.21 580.967 421.598 580.885C421.991 580.862 422.359 580.708 422.622 580.455C422.886 580.203 423.025 579.873 423.011 579.534C422.968 579.365 422.886 579.206 422.77 579.066C422.653 578.926 422.504 578.808 422.333 578.72C422.161 578.631 421.97 578.574 421.772 578.551C421.573 578.528 421.372 578.541 421.179 578.588C420.786 578.611 420.419 578.765 420.155 579.017C419.891 579.269 419.752 579.6 419.766 579.939Z" fill="#9F2A52"/>
<path d="M471.025 789.336C466.835 790.045 462.918 791.266 459.506 792.928C453.541 795.313 449.221 797.538 449.221 797.952C453.499 797.236 457.492 795.98 460.946 794.264C466.911 791.943 471.436 789.717 471.025 789.336Z" fill="#9F2A52"/>
<path d="M223.9 725.134C222.926 722.107 221.156 719.261 218.695 716.765C215.193 712.415 211.89 709.251 211.255 709.239C212.237 712.329 214.057 715.23 216.601 717.758C220.005 722.106 223.302 725.418 223.9 725.134Z" fill="#9F2A52"/>
<path d="M209.346 698.287C209.984 694.277 209.786 690.223 208.765 686.365C207.721 679.905 206.256 674.955 205.67 674.729C205.007 678.819 205.223 682.957 206.305 686.881C207.259 693.307 208.643 698.435 209.346 698.287Z" fill="#9F2A52"/>
<path d="M200.374 675.368C199.927 671.336 198.657 667.45 196.642 663.939C193.913 657.911 191.177 653.442 190.548 653.355C190.993 657.47 192.302 661.433 194.394 664.994C197.027 671.009 199.732 675.669 200.374 675.368Z" fill="#9F2A52"/>
<path d="M178.544 652.392C178.097 648.36 176.828 644.474 174.812 640.964C172.083 634.936 169.347 630.466 168.718 630.379C169.163 634.494 170.472 638.457 172.564 642.018C175.197 648.033 177.902 652.693 178.544 652.392Z" fill="#9F2A52"/>
<path d="M153.596 625.108C153.148 621.076 151.879 617.19 149.864 613.679C147.134 607.651 144.399 603.182 143.77 603.095C144.215 607.21 145.524 611.173 147.616 614.734C150.249 620.749 152.954 625.409 153.596 625.108Z" fill="#9F2A52"/>
<path d="M513.114 767.797C509.036 768.903 505.317 770.593 502.187 772.763C496.62 775.926 492.497 778.832 492.909 779.237C493.321 779.641 498.063 777.434 503.836 774.271C509.609 771.107 513.578 768.201 513.114 767.797Z" fill="#9F2A52"/>
<path d="M251.888 755.314C250.53 752.366 248.387 749.662 245.59 747.366C241.54 743.302 237.791 740.276 237.242 740.561C236.693 740.846 239.495 744.296 243.54 748.508C247.585 752.721 251.338 755.635 251.888 755.314Z" fill="#9F2A52"/>
<path d="M544.337 741.961C543.729 741.722 540.833 744.928 537.469 748.782C535.082 751.057 533.191 753.588 531.863 756.285C532.423 756.592 536.067 753.761 539.525 749.737C541.959 747.464 543.609 744.797 544.337 741.961Z" fill="#9F2A52"/>
<path d="M289.304 778.588C289.665 778.115 285.158 775.739 279.736 772.977C276.547 771.03 272.977 769.467 269.151 768.344C268.694 768.779 272.641 771.734 278.304 774.574C281.489 776.559 285.261 777.935 289.304 778.588Z" fill="#9F2A52"/>
<path d="M564.607 708.922C562.241 711.387 560.514 714.211 559.531 717.227C557.903 720.028 556.979 723.062 556.811 726.153C559.167 723.698 560.851 720.868 561.752 717.849C563.454 715.063 564.427 712.024 564.607 708.922Z" fill="#9F2A52"/>
<path d="M333.883 793.545C330.664 791.556 326.944 790.078 322.945 789.201C319.253 787.804 315.228 786.975 311.102 786.759C314.309 788.739 318.038 790.182 322.044 790.992C325.713 792.449 329.743 793.318 333.883 793.545Z" fill="#9F2A52"/>
</g>
<defs>
<filter id="filter0_d_71_14" x="782.743" y="297.152" width="80.6837" height="111.675" filterUnits="userSpaceOnUse" color-interpolation-filters="sRGB">
<feFlood flood-opacity="0" result="BackgroundImageFix"/>
<feColorMatrix in="SourceAlpha" type="matrix" values="0 0 0 0 0 0 0 0 0 0 0 0 0 0 0 0 0 0 127 0" result="hardAlpha"/>
<feOffset dy="4"/>
<feGaussianBlur stdDeviation="2"/>
<feComposite in2="hardAlpha" operator="out"/>
<feColorMatrix type="matrix" values="0 0 0 0 0 0 0 0 0 0 0 0 0 0 0 0 0 0 0.25 0"/>
<feBlend mode="normal" in2="BackgroundImageFix" result="effect1_dropShadow_71_14"/>
<feBlend mode="normal" in="SourceGraphic" in2="effect1_dropShadow_71_14" result="shape"/>
</filter>
<linearGradient id="paint0_linear_71_14" x1="833.716" y1="345.798" x2="833.716" y2="706.872" gradientUnits="userSpaceOnUse">
<stop stop-color="#D8C0C8"/>
<stop offset="0.322917" stop-color="#D8C0C8"/>
<stop offset="0.744792" stop-color="#D8C0C8"/>
<stop offset="1" stop-color="#D8C0C8"/>
</linearGradient>
<linearGradient id="paint1_linear_71_14" x1="827.181" y1="318.828" x2="827.181" y2="370.478" gradientUnits="userSpaceOnUse">
<stop stop-color="#9F2A52"/>
<stop offset="1" stop-color="#F7F7FC"/>
</linearGradient>
<linearGradient id="paint2_linear_71_14" x1="827.181" y1="318.828" x2="827.181" y2="370.478" gradientUnits="userSpaceOnUse">
<stop stop-color="#9F2A52"/>
<stop offset="1" stop-color="#F7F7FC"/>
</linearGradient>
<clipPath id="clip0_71_14">
<rect width="1113.32" height="807" fill="white" transform="matrix(-1 0 0 1 1004.32 0)"/>
</clipPath>
</defs>
</svg>
