<svg width="54" height="54" viewBox="0 0 54 54" fill="none" xmlns="http://www.w3.org/2000/svg">
<circle cx="27" cy="27" r="26" transform="rotate(90 27 27)" fill="white" stroke="#DBDBDB" stroke-width="2"/>
<path d="M25.2025 20C25.509 20 25.8171 20.1297 26.0514 20.3891L31.647 26.5541C31.8732 26.8047 32 27.144 32 27.4993C32 27.8529 31.8732 28.1922 31.647 28.4427L26.0514 34.6114C25.5812 35.1301 24.8206 35.1301 24.3504 34.6078C23.8819 34.0855 23.8835 33.2415 24.3536 32.7227L29.0923 27.4993L24.3536 22.2759C23.8835 21.7571 23.8819 20.915 24.3504 20.3926C24.5847 20.1297 24.8944 20 25.2025 20Z" fill="#9F2A52"/>
</svg>
