<svg width="88" height="87" viewBox="0 0 88 87" fill="none" xmlns="http://www.w3.org/2000/svg">
<ellipse cx="43.9999" cy="43.5" rx="44" ry="43.5" fill="#ECEBFD"/>
<path fill-rule="evenodd" clip-rule="evenodd" d="M43.4335 63.2156C43.6642 63.3323 43.9222 63.3917 44.1801 63.3897C44.4381 63.3877 44.694 63.3264 44.9268 63.2077L52.3599 59.3594C54.4677 58.2711 56.1184 57.0543 57.4062 55.6377C60.2061 52.5511 61.7351 48.6117 61.7079 44.5497L61.6198 31.1508C61.6114 29.6075 60.5648 28.2305 59.0169 27.7299L45.189 23.2365C44.3563 22.9635 43.444 22.9694 42.626 23.2504L28.8504 27.904C27.311 28.4244 26.2833 29.8113 26.2917 31.3566L26.3797 44.7456C26.407 48.8136 27.9884 52.7351 30.8346 55.79C32.1349 57.1869 33.8002 58.3859 35.9312 59.4563L43.4335 63.2156ZM41.4657 47.4679C41.7762 47.7568 42.1788 47.8993 42.5815 47.8953C42.9842 47.8933 43.3848 47.7469 43.6911 47.4541L51.8142 39.6981C52.4245 39.1144 52.4182 38.1765 51.8016 37.6008C51.1829 37.025 50.1866 37.029 49.5763 37.6127L42.5585 44.3121L39.6851 41.6371C39.0663 41.0613 38.0722 41.0672 37.4598 41.6509C36.8494 42.2346 36.8557 43.1724 37.4744 43.7482L41.4657 47.4679Z" fill="#9F2A52"/>
</svg>
