<svg width="43" height="43" viewBox="0 0 43 43" fill="none" xmlns="http://www.w3.org/2000/svg">
<path d="M38.2909 5.01847C37.4155 4.12005 36.12 3.78534 34.912 4.13766L6.74299 12.3292C5.46846 12.6833 4.56509 13.6997 4.32174 14.991C4.07314 16.3051 4.9415 17.9734 6.07596 18.671L14.8838 24.0844C15.7872 24.6393 16.9532 24.5002 17.7007 23.7462L27.7866 13.5975C28.2943 13.069 29.1347 13.069 29.6424 13.5975C30.1501 14.1084 30.1501 14.9364 29.6424 15.4648L19.539 25.6153C18.7897 26.3675 18.6496 27.5389 19.2011 28.4479L24.5828 37.3441C25.213 38.4011 26.2985 39 27.489 39C27.629 39 27.7866 39 27.9267 38.9824C29.2922 38.8062 30.3777 37.8726 30.7803 36.5514L39.1312 8.41838C39.4989 7.22049 39.1663 5.91689 38.2909 5.01847Z" fill="white"/>
</svg>
