<svg width="50" height="54" viewBox="0 0 50 54" fill="none" xmlns="http://www.w3.org/2000/svg">
<path d="M24.9999 0C11.2144 0 -6.10352e-05 12.0235 -6.10352e-05 26.8037C-6.10352e-05 41.5838 11.2144 53.6074 24.9999 53.6074C38.7855 53.6074 49.9999 41.5838 49.9999 26.8037C49.9999 12.0235 38.7855 0 24.9999 0ZM37.6708 21.1236L24.129 35.642C23.7228 36.0776 23.1895 36.2968 22.6562 36.2968C22.1229 36.2968 21.5896 36.0776 21.1833 35.642L14.4126 28.3828C13.5978 27.5096 13.5978 26.0978 14.4126 25.2246C15.2271 24.351 16.5435 24.351 17.3583 25.2246L22.6562 30.9047L34.7251 17.9654C35.5396 17.0918 36.856 17.0918 37.6708 17.9654C38.4853 18.8386 38.4853 20.25 37.6708 21.1236Z" fill="#9F2A52"/>
</svg>
