<svg width="88" height="88" viewBox="0 0 88 88" fill="none" xmlns="http://www.w3.org/2000/svg">
<circle cx="43.9999" cy="44" r="44" fill="#ECEBFD"/>
<path d="M29.3524 36.0751C29.6412 36.2483 29.9301 36.3059 30.2185 36.3059C30.7381 36.3059 31.2578 36.0171 31.6046 35.5551C32.1243 34.689 32.7595 33.9381 33.3947 33.1872C34.03 32.5519 33.9724 31.5127 33.3371 30.935C32.7019 30.2997 31.6626 30.3573 31.0849 30.9926C30.2764 31.8586 29.5255 32.8408 28.8903 33.8801C28.3706 34.6314 28.6014 35.6131 29.3523 36.0751L29.3524 36.0751Z" fill="#9F2A52"/>
<path d="M38.3059 56.8653C35.9961 55.826 33.9169 54.2667 32.4152 52.2452C31.8956 51.5523 30.8559 51.3791 30.163 51.9564C29.4701 52.476 29.2969 53.5157 29.8741 54.2086C31.7224 56.6341 34.2054 58.5975 37.0353 59.868C37.2661 59.9836 37.4397 59.9836 37.6705 59.9836C38.3058 59.9836 38.8835 59.6372 39.1719 59.0019C39.5184 58.1935 39.1143 57.2118 38.3059 56.8653V56.8653Z" fill="#9F2A52"/>
<path d="M29.8753 46.9324C29.3557 45.0266 29.2977 43.0056 29.5289 41.0997C29.6445 40.2337 29.0669 39.4252 28.1428 39.3096C27.2767 39.194 26.4683 39.7716 26.3526 40.6957C26.0062 43.0636 26.1218 45.4314 26.7571 47.7989C26.9303 48.5497 27.6232 49.0118 28.3165 49.0118C28.4321 49.0118 28.6053 49.0118 28.7209 48.9542C29.587 48.6646 30.1067 47.7985 29.8754 46.9324L29.8753 46.9324Z" fill="#9F2A52"/>
<path d="M38.1965 26.6842C39.0236 26.9251 39.4985 27.7905 39.2576 28.6174C39.0167 29.444 38.1514 29.919 37.3244 29.6781C36.4978 29.4372 36.0229 28.5718 36.2638 27.7449C36.5043 26.9183 37.37 26.4433 38.1965 26.6842Z" fill="#9F2A52"/>
<path d="M44.1918 25.1607C43.3257 25.1607 42.5748 25.8536 42.5748 26.7777C42.5748 27.6438 43.2677 28.3947 44.1918 28.3947C52.3924 28.3947 59.0914 35.0938 59.0914 43.2942C59.0914 44.8536 58.8605 46.4125 58.3405 47.9719C58.0517 48.838 58.5137 49.7045 59.3798 49.9934C59.553 50.051 59.7262 50.051 59.8995 50.051C60.5923 50.051 61.2276 49.6465 61.4009 48.9536C62.0361 47.1054 62.325 45.2001 62.325 43.2942C62.3254 33.3035 54.1825 25.1606 44.1914 25.1606L44.1918 25.1607Z" fill="#9F2A52"/>
<path d="M55.1644 53.3433C52.3345 56.4041 48.3501 58.1942 44.1918 58.1942C43.3257 58.1942 42.5748 58.8871 42.5748 59.8112C42.5748 60.6773 43.2677 61.4282 44.1918 61.4282C49.216 61.4282 54.1249 59.2916 57.5321 55.5376C58.1098 54.9023 58.1098 53.8631 57.4165 53.2854C56.7812 52.6501 55.7995 52.7081 55.1642 53.3434L55.1644 53.3433Z" fill="#9F2A52"/>
<path d="M54.3075 38.4429L41.8335 50.9169L34.2103 43.2362L36.9822 40.4643L41.8331 45.3152L51.4774 35.6709L54.3075 38.4429Z" fill="#9F2A52"/>
</svg>
