<svg width="82" height="82" viewBox="0 0 82 82" fill="none" xmlns="http://www.w3.org/2000/svg">
<path d="M41 0.819946C24.354 0.819946 10.865 14.3171 10.865 30.9549C10.865 47.6009 35.9816 81.1799 41 81.1799C46.0266 81.1799 71.135 47.5927 71.135 30.9549C71.135 14.3171 57.646 0.819946 41 0.819946ZM41 51.0449C29.9218 51.0449 20.91 42.0331 20.91 30.9549C20.91 19.8767 29.9218 10.8649 41 10.8649C52.0782 10.8649 61.09 19.8767 61.09 30.9549C61.09 42.0249 52.0782 51.0449 41 51.0449Z" fill="#9F2A52"/>
<path d="M28.7983 43.7306H31.7913V45.5756C31.7913 46.1086 32.2259 46.5432 32.7589 46.5432H35.4075C35.9405 46.5432 36.3751 46.1086 36.3751 45.5756V43.7306H45.6247V45.5756C45.6247 46.1086 46.0593 46.5432 46.5923 46.5432H49.2409C49.7739 46.5432 50.2085 46.1086 50.2085 45.5756V43.7306H53.2015V41.9512H28.7983V43.7306Z" fill="#9F2A52"/>
<path d="M29.971 23.493C29.971 22.96 30.4056 22.5254 30.9386 22.5254H51.0532C51.5862 22.5254 52.0208 22.96 52.0208 23.493V25.338H53.2754V17.835H28.7246V25.338H29.9792V23.493H29.971Z" fill="#9F2A52"/>
<path d="M52.7178 26.0925V29.2085H51.3484V24.4525C51.3484 23.9195 50.9138 23.4849 50.3808 23.4849H31.6274C31.0944 23.4849 30.6598 23.9195 30.6598 24.4525V29.2085H29.2904V26.0925H27.1584V29.2085V31.2257H29.2904H30.6598V32.6361H29.766C29.233 32.6361 28.7984 33.0707 28.7984 33.6037V41.4265H53.2098V33.6037C53.2098 33.0707 52.7752 32.6361 52.2422 32.6361H51.3566V31.2257H52.726H54.858V29.2085V26.0925H52.7178ZM32.4638 25.9203C32.4638 25.3873 32.8984 24.9527 33.4314 24.9527H48.5604C49.0934 24.9527 49.528 25.3873 49.528 25.9203V32.6443H32.4638V25.9203ZM33.9972 39.8849H32.349C31.8898 39.8849 31.5208 39.5159 31.5208 39.0567C31.5208 38.5975 31.8898 38.2285 32.349 38.2285H33.9972C34.4564 38.2285 34.8254 38.5975 34.8254 39.0567C34.8254 39.5159 34.4564 39.8849 33.9972 39.8849ZM46.043 39.8849H35.957V38.9173H46.043V39.8849ZM46.043 37.8677H35.957V36.9001H46.043V37.8677ZM46.043 35.8423H35.957V34.8747H46.043V35.8423ZM49.651 39.8849H48.0028C47.5436 39.8849 47.1746 39.5159 47.1746 39.0567C47.1746 38.5975 47.5436 38.2285 48.0028 38.2285H49.651C50.1102 38.2285 50.4792 38.5975 50.4792 39.0567C50.471 39.5159 50.102 39.8849 49.651 39.8849Z" fill="#9F2A52"/>
</svg>
